solid OpenSCAD_Model
  facet normal -1 0 0
    outer loop
      vertex -38 4.36283e-015 2
      vertex -38 -9.47135 2
      vertex -38 9.35816e-015 16.5
    endloop
  endfacet
  facet normal -1 0 0
    outer loop
      vertex -38 9.35816e-015 16.5
      vertex -38 -9.47135 2
      vertex -38 -9.47135 8
    endloop
  endfacet
  facet normal -1 0 0
    outer loop
      vertex -38 9.35816e-015 16.5
      vertex -38 -9.47135 8
      vertex -38 -0.88505 16.5
    endloop
  endfacet
  facet normal 0 3.44505e-016 1
    outer loop
      vertex 38 -0.88505 16.5
      vertex 38 9.35816e-015 16.5
      vertex -38 9.35816e-015 16.5
    endloop
  endfacet
  facet normal 0 3.44505e-016 1
    outer loop
      vertex -38 -0.88505 16.5
      vertex 38 -0.88505 16.5
      vertex -38 9.35816e-015 16.5
    endloop
  endfacet
  facet normal 5.57908e-017 -0.703526 0.710669
    outer loop
      vertex -36.3582 -5.98606 11.4503
      vertex -38 -0.88505 16.5
      vertex -38 -9.47135 8
    endloop
  endfacet
  facet normal 5.57908e-017 -0.703526 0.710669
    outer loop
      vertex 25.6 -5.46554 11.9655
      vertex 24.8 -6.45029 10.9907
      vertex 32.4949 -8.46119 9
    endloop
  endfacet
  facet normal 5.57908e-017 -0.703526 0.710669
    outer loop
      vertex 38 -9.47135 8
      vertex 38 -0.88505 16.5
      vertex 37.4767 -10 7.47666
    endloop
  endfacet
  facet normal 5.57908e-017 -0.703526 0.710669
    outer loop
      vertex -35.292 -7.64512 9.80787
      vertex -36.3582 -5.98606 11.4503
      vertex -38 -9.47135 8
    endloop
  endfacet
  facet normal 5.57908e-017 -0.703526 0.710669
    outer loop
      vertex -36.3582 -4.01394 13.4026
      vertex -38 -0.88505 16.5
      vertex -36.3582 -5.98606 11.4503
    endloop
  endfacet
  facet normal 5.57908e-017 -0.703526 0.710669
    outer loop
      vertex -35.292 -2.35488 15.0449
      vertex -38 -0.88505 16.5
      vertex -36.3582 -4.01394 13.4026
    endloop
  endfacet
  facet normal 5.57908e-017 -0.703526 0.710669
    outer loop
      vertex -33.4981 -1.53562 15.856
      vertex -38 -0.88505 16.5
      vertex -35.292 -2.35488 15.0449
    endloop
  endfacet
  facet normal 5.57908e-017 -0.703526 0.710669
    outer loop
      vertex 38 -0.88505 16.5
      vertex -38 -0.88505 16.5
      vertex -33.4981 -1.53562 15.856
    endloop
  endfacet
  facet normal 5.57908e-017 -0.703526 0.710669
    outer loop
      vertex -30.0556 -3.10776 14.2996
      vertex -24.8 -4.4808 12.9404
      vertex 38 -0.88505 16.5
    endloop
  endfacet
  facet normal 5.57908e-017 -0.703526 0.710669
    outer loop
      vertex 38 -0.88505 16.5
      vertex -33.4981 -1.53562 15.856
      vertex -31.546 -1.81629 15.5781
    endloop
  endfacet
  facet normal 5.57908e-017 -0.703526 0.710669
    outer loop
      vertex -29.5 -5 12.4264
      vertex -30.0556 -6.89224 10.5532
      vertex -25.6 -5.46554 11.9655
    endloop
  endfacet
  facet normal 5.57908e-017 -0.703526 0.710669
    outer loop
      vertex -24.8 -6.45029 10.9907
      vertex -25.6 -5.46554 11.9655
      vertex -30.0556 -6.89224 10.5532
    endloop
  endfacet
  facet normal 5.57908e-017 -0.703526 0.710669
    outer loop
      vertex -10.57 -5.80404 11.6304
      vertex -9.62 -7.46619 9.985
      vertex 32.5019 -1.53562 15.856
    endloop
  endfacet
  facet normal 5.57908e-017 -0.703526 0.710669
    outer loop
      vertex -23.2 -6.45029 10.9907
      vertex -30.0556 -6.89224 10.5532
      vertex -31.546 -8.18371 9.27469
    endloop
  endfacet
  facet normal 5.57908e-017 -0.703526 0.710669
    outer loop
      vertex -31.546 -8.18371 9.27469
      vertex -33.476 -8.46119 9
      vertex -38 -9.47135 8
    endloop
  endfacet
  facet normal 5.57908e-017 -0.703526 0.710669
    outer loop
      vertex -33.476 -8.46119 9
      vertex -33.5051 -8.46119 9
      vertex -38 -9.47135 8
    endloop
  endfacet
  facet normal 5.57908e-017 -0.703526 0.710669
    outer loop
      vertex -9.62 -7.46619 9.985
      vertex -10.57 -9.12835 8.33955
      vertex 37.4767 -10 7.47666
    endloop
  endfacet
  facet normal 5.57908e-017 -0.703526 0.710669
    outer loop
      vertex -22.4 -5.46554 11.9655
      vertex -23.2 -6.45029 10.9907
      vertex 38 -0.88505 16.5
    endloop
  endfacet
  facet normal 5.57908e-017 -0.703526 0.710669
    outer loop
      vertex -33.5051 -8.46119 9
      vertex -35.292 -7.64512 9.80787
      vertex -38 -9.47135 8
    endloop
  endfacet
  facet normal 5.57908e-017 -0.703526 0.710669
    outer loop
      vertex 32.4949 -8.46119 9
      vertex 24.8 -6.45029 10.9907
      vertex 37.4767 -10 7.47666
    endloop
  endfacet
  facet normal 5.57908e-017 -0.703526 0.710669
    outer loop
      vertex -23.2 -4.4808 12.9404
      vertex -22.4 -5.46554 11.9655
      vertex 38 -0.88505 16.5
    endloop
  endfacet
  facet normal 5.57908e-017 -0.703526 0.710669
    outer loop
      vertex 38 -0.88505 16.5
      vertex -24.8 -4.4808 12.9404
      vertex -23.2 -4.4808 12.9404
    endloop
  endfacet
  facet normal 5.57908e-017 -0.703526 0.710669
    outer loop
      vertex -12.47 -5.80404 11.6304
      vertex -23.2 -6.45029 10.9907
      vertex -31.546 -8.18371 9.27469
    endloop
  endfacet
  facet normal 5.57908e-017 -0.703526 0.710669
    outer loop
      vertex -24.8 -6.45029 10.9907
      vertex -30.0556 -6.89224 10.5532
      vertex -23.2 -6.45029 10.9907
    endloop
  endfacet
  facet normal 5.57908e-017 -0.703526 0.710669
    outer loop
      vertex -10.57 -5.80404 11.6304
      vertex 32.5019 -1.53562 15.856
      vertex 38 -0.88505 16.5
    endloop
  endfacet
  facet normal 5.57908e-017 -0.703526 0.710669
    outer loop
      vertex -25.6 -5.46554 11.9655
      vertex -24.8 -4.4808 12.9404
      vertex -29.5 -5 12.4264
    endloop
  endfacet
  facet normal 5.57908e-017 -0.703526 0.710669
    outer loop
      vertex -12.47 -9.12835 8.33955
      vertex -13.42 -7.46619 9.985
      vertex -37.4767 -10 7.47666
    endloop
  endfacet
  facet normal 5.57908e-017 -0.703526 0.710669
    outer loop
      vertex 38 -0.88505 16.5
      vertex -23.2 -6.45029 10.9907
      vertex -12.47 -5.80404 11.6304
    endloop
  endfacet
  facet normal 5.57908e-017 -0.703526 0.710669
    outer loop
      vertex 38 -0.88505 16.5
      vertex -12.47 -5.80404 11.6304
      vertex -10.57 -5.80404 11.6304
    endloop
  endfacet
  facet normal 5.57908e-017 -0.703526 0.710669
    outer loop
      vertex 32.5019 -1.53562 15.856
      vertex 34.454 -1.81629 15.5781
      vertex 38 -0.88505 16.5
    endloop
  endfacet
  facet normal 5.57908e-017 -0.703526 0.710669
    outer loop
      vertex 37.4767 -10 7.47666
      vertex -10.57 -9.12835 8.33955
      vertex -37.4767 -10 7.47666
    endloop
  endfacet
  facet normal 5.57908e-017 -0.703526 0.710669
    outer loop
      vertex -10.57 -9.12835 8.33955
      vertex -12.47 -9.12835 8.33955
      vertex -37.4767 -10 7.47666
    endloop
  endfacet
  facet normal 5.57908e-017 -0.703526 0.710669
    outer loop
      vertex 23.2 -6.45029 10.9907
      vertex 22.4 -5.46554 11.9655
      vertex -9.62 -7.46619 9.985
    endloop
  endfacet
  facet normal 5.57908e-017 -0.703526 0.710669
    outer loop
      vertex 22.4 -5.46554 11.9655
      vertex 23.2 -4.4808 12.9404
      vertex -9.62 -7.46619 9.985
    endloop
  endfacet
  facet normal 5.57908e-017 -0.703526 0.710669
    outer loop
      vertex 30.708 -2.35488 15.0449
      vertex 32.5019 -1.53562 15.856
      vertex -9.62 -7.46619 9.985
    endloop
  endfacet
  facet normal 5.57908e-017 -0.703526 0.710669
    outer loop
      vertex 29.6418 -4.01394 13.4026
      vertex 24.8 -4.4808 12.9404
      vertex 25.6 -5.46554 11.9655
    endloop
  endfacet
  facet normal 5.57908e-017 -0.703526 0.710669
    outer loop
      vertex 37.4767 -10 7.47666
      vertex 24.8 -6.45029 10.9907
      vertex -9.62 -7.46619 9.985
    endloop
  endfacet
  facet normal 5.57908e-017 -0.703526 0.710669
    outer loop
      vertex 32.4949 -8.46119 9
      vertex 30.708 -7.64512 9.80787
      vertex 25.6 -5.46554 11.9655
    endloop
  endfacet
  facet normal 5.57908e-017 -0.703526 0.710669
    outer loop
      vertex 24.8 -6.45029 10.9907
      vertex 23.2 -6.45029 10.9907
      vertex -9.62 -7.46619 9.985
    endloop
  endfacet
  facet normal 5.57908e-017 -0.703526 0.710669
    outer loop
      vertex 29.6418 -5.98606 11.4503
      vertex 29.6418 -4.01394 13.4026
      vertex 25.6 -5.46554 11.9655
    endloop
  endfacet
  facet normal 5.57908e-017 -0.703526 0.710669
    outer loop
      vertex 36.5 -5 12.4264
      vertex 35.9444 -6.89224 10.5532
      vertex 37.4767 -10 7.47666
    endloop
  endfacet
  facet normal 5.57908e-017 -0.703526 0.710669
    outer loop
      vertex 23.2 -4.4808 12.9404
      vertex 30.708 -2.35488 15.0449
      vertex -9.62 -7.46619 9.985
    endloop
  endfacet
  facet normal 5.57908e-017 -0.703526 0.710669
    outer loop
      vertex 29.6418 -4.01394 13.4026
      vertex 23.2 -4.4808 12.9404
      vertex 24.8 -4.4808 12.9404
    endloop
  endfacet
  facet normal 5.57908e-017 -0.703526 0.710669
    outer loop
      vertex 29.6418 -4.01394 13.4026
      vertex 30.708 -2.35488 15.0449
      vertex 23.2 -4.4808 12.9404
    endloop
  endfacet
  facet normal 5.57908e-017 -0.703526 0.710669
    outer loop
      vertex 34.454 -1.81629 15.5781
      vertex 35.9444 -3.10776 14.2996
      vertex 38 -0.88505 16.5
    endloop
  endfacet
  facet normal 5.57908e-017 -0.703526 0.710669
    outer loop
      vertex 36.5 -5 12.4264
      vertex 38 -0.88505 16.5
      vertex 35.9444 -3.10776 14.2996
    endloop
  endfacet
  facet normal 5.57908e-017 -0.703526 0.710669
    outer loop
      vertex 37.4767 -10 7.47666
      vertex 38 -0.88505 16.5
      vertex 36.5 -5 12.4264
    endloop
  endfacet
  facet normal 5.57908e-017 -0.703526 0.710669
    outer loop
      vertex 37.4767 -10 7.47666
      vertex 35.9444 -6.89224 10.5532
      vertex 34.454 -8.18371 9.27469
    endloop
  endfacet
  facet normal 5.57908e-017 -0.703526 0.710669
    outer loop
      vertex 30.708 -7.64512 9.80787
      vertex 29.6418 -5.98606 11.4503
      vertex 25.6 -5.46554 11.9655
    endloop
  endfacet
  facet normal 5.57908e-017 -0.703526 0.710669
    outer loop
      vertex 37.4767 -10 7.47666
      vertex 32.524 -8.46119 9
      vertex 32.4949 -8.46119 9
    endloop
  endfacet
  facet normal 5.57908e-017 -0.703526 0.710669
    outer loop
      vertex 34.454 -8.18371 9.27469
      vertex 32.524 -8.46119 9
      vertex 37.4767 -10 7.47666
    endloop
  endfacet
  facet normal 5.57908e-017 -0.703526 0.710669
    outer loop
      vertex -31.546 -1.81629 15.5781
      vertex -30.0556 -3.10776 14.2996
      vertex 38 -0.88505 16.5
    endloop
  endfacet
  facet normal 5.57908e-017 -0.703526 0.710669
    outer loop
      vertex -30.0556 -3.10776 14.2996
      vertex -29.5 -5 12.4264
      vertex -24.8 -4.4808 12.9404
    endloop
  endfacet
  facet normal 5.57908e-017 -0.703526 0.710669
    outer loop
      vertex -13.42 -7.46619 9.985
      vertex -38 -9.47135 8
      vertex -37.4767 -10 7.47666
    endloop
  endfacet
  facet normal 5.57908e-017 -0.703526 0.710669
    outer loop
      vertex -13.42 -7.46619 9.985
      vertex -31.546 -8.18371 9.27469
      vertex -38 -9.47135 8
    endloop
  endfacet
  facet normal 5.57908e-017 -0.703526 0.710669
    outer loop
      vertex -13.42 -7.46619 9.985
      vertex -12.47 -5.80404 11.6304
      vertex -31.546 -8.18371 9.27469
    endloop
  endfacet
  facet normal 0 1 -3.44505e-016
    outer loop
      vertex -22.4 5.9131e-015 6.5
      vertex -10.57 6.54684e-015 8.33955
      vertex -23.2 5.23801e-015 4.54041
    endloop
  endfacet
  facet normal 0 1 -3.44505e-016
    outer loop
      vertex 24.8 6.58819e-015 8.45959
      vertex 38 9.35816e-015 16.5
      vertex 38 4.36283e-015 2
    endloop
  endfacet
  facet normal 0 1 -3.44505e-016
    outer loop
      vertex -38 9.35816e-015 16.5
      vertex -24.8 6.58819e-015 8.45959
      vertex -38 4.36283e-015 2
    endloop
  endfacet
  facet normal 0 1 -3.44505e-016
    outer loop
      vertex -12.47 6.54684e-015 8.33955
      vertex -23.2 6.58819e-015 8.45959
      vertex -13.42 7.1137e-015 9.985
    endloop
  endfacet
  facet normal 0 1 -3.44505e-016
    outer loop
      vertex -24.8 6.58819e-015 8.45959
      vertex -25.6 5.9131e-015 6.5
      vertex -38 4.36283e-015 2
    endloop
  endfacet
  facet normal 0 1 -3.44505e-016
    outer loop
      vertex -10.57 6.54684e-015 8.33955
      vertex -22.4 5.9131e-015 6.5
      vertex -12.47 6.54684e-015 8.33955
    endloop
  endfacet
  facet normal 0 1 -3.44505e-016
    outer loop
      vertex -25.6 5.9131e-015 6.5
      vertex -24.8 5.23801e-015 4.54041
      vertex -38 4.36283e-015 2
    endloop
  endfacet
  facet normal 0 1 -3.44505e-016
    outer loop
      vertex -10.57 6.54684e-015 8.33955
      vertex 38 9.35816e-015 16.5
      vertex -23.2 5.23801e-015 4.54041
    endloop
  endfacet
  facet normal 0 1 -3.44505e-016
    outer loop
      vertex -38 4.36283e-015 2
      vertex -23.2 5.23801e-015 4.54041
      vertex 38 4.36283e-015 2
    endloop
  endfacet
  facet normal 0 1 -3.44505e-016
    outer loop
      vertex -38 9.35816e-015 16.5
      vertex 38 9.35816e-015 16.5
      vertex -12.47 7.68057e-015 11.6304
    endloop
  endfacet
  facet normal 0 1 -3.44505e-016
    outer loop
      vertex -38 9.35816e-015 16.5
      vertex -12.47 7.68057e-015 11.6304
      vertex -24.8 6.58819e-015 8.45959
    endloop
  endfacet
  facet normal 0 1 -3.44505e-016
    outer loop
      vertex 25.6 5.9131e-015 6.5
      vertex 38 4.36283e-015 2
      vertex 24.8 5.23801e-015 4.54041
    endloop
  endfacet
  facet normal 0 1 -3.44505e-016
    outer loop
      vertex -12.47 7.68057e-015 11.6304
      vertex -13.42 7.1137e-015 9.985
      vertex -24.8 6.58819e-015 8.45959
    endloop
  endfacet
  facet normal 0 1 -3.44505e-016
    outer loop
      vertex -9.62 7.1137e-015 9.985
      vertex 38 9.35816e-015 16.5
      vertex -10.57 6.54684e-015 8.33955
    endloop
  endfacet
  facet normal 0 1 -3.44505e-016
    outer loop
      vertex -10.57 7.68057e-015 11.6304
      vertex 38 9.35816e-015 16.5
      vertex -9.62 7.1137e-015 9.985
    endloop
  endfacet
  facet normal 0 1 -3.44505e-016
    outer loop
      vertex -23.2 6.58819e-015 8.45959
      vertex -24.8 6.58819e-015 8.45959
      vertex -13.42 7.1137e-015 9.985
    endloop
  endfacet
  facet normal 0 1 -3.44505e-016
    outer loop
      vertex -12.47 7.68057e-015 11.6304
      vertex 38 9.35816e-015 16.5
      vertex -10.57 7.68057e-015 11.6304
    endloop
  endfacet
  facet normal 0 1 -3.44505e-016
    outer loop
      vertex -23.2 5.23801e-015 4.54041
      vertex 38 9.35816e-015 16.5
      vertex 23.2 6.58819e-015 8.45959
    endloop
  endfacet
  facet normal 0 1 -3.44505e-016
    outer loop
      vertex -23.2 5.23801e-015 4.54041
      vertex 23.2 6.58819e-015 8.45959
      vertex 22.4 5.9131e-015 6.5
    endloop
  endfacet
  facet normal 0 1 -3.44505e-016
    outer loop
      vertex -23.2 5.23801e-015 4.54041
      vertex 22.4 5.9131e-015 6.5
      vertex 23.2 5.23801e-015 4.54041
    endloop
  endfacet
  facet normal 0 1 -3.44505e-016
    outer loop
      vertex -23.2 5.23801e-015 4.54041
      vertex 23.2 5.23801e-015 4.54041
      vertex 38 4.36283e-015 2
    endloop
  endfacet
  facet normal 0 1 -3.44505e-016
    outer loop
      vertex 23.2 5.23801e-015 4.54041
      vertex 24.8 5.23801e-015 4.54041
      vertex 38 4.36283e-015 2
    endloop
  endfacet
  facet normal 0 1 -3.44505e-016
    outer loop
      vertex 24.8 6.58819e-015 8.45959
      vertex 38 4.36283e-015 2
      vertex 25.6 5.9131e-015 6.5
    endloop
  endfacet
  facet normal 0 1 -3.44505e-016
    outer loop
      vertex 23.2 6.58819e-015 8.45959
      vertex 38 9.35816e-015 16.5
      vertex 24.8 6.58819e-015 8.45959
    endloop
  endfacet
  facet normal 0 1 -3.44505e-016
    outer loop
      vertex -23.2 5.23801e-015 4.54041
      vertex -38 4.36283e-015 2
      vertex -24.8 5.23801e-015 4.54041
    endloop
  endfacet
  facet normal 0 1 -3.44505e-016
    outer loop
      vertex -23.2 6.58819e-015 8.45959
      vertex -12.47 6.54684e-015 8.33955
      vertex -22.4 5.9131e-015 6.5
    endloop
  endfacet
  facet normal -0.710669 -0.703526 2.98159e-016
    outer loop
      vertex -38 -9.47135 8
      vertex -38 -9.47135 2
      vertex -37.4767 -10 7.47666
    endloop
  endfacet
  facet normal -0.710669 -0.703526 2.98159e-016
    outer loop
      vertex -37.4767 -10 7.47666
      vertex -38 -9.47135 2
      vertex -37.4767 -10 2
    endloop
  endfacet
  facet normal 0 -3.44505e-016 -1
    outer loop
      vertex 32.555 -6.94986 2
      vertex 38 -9.47135 2
      vertex -38 4.36283e-015 2
    endloop
  endfacet
  facet normal 0 -3.44505e-016 -1
    outer loop
      vertex -38 4.36283e-015 2
      vertex 38 -9.47135 2
      vertex 37.4767 -10 2
    endloop
  endfacet
  facet normal 0 -3.44505e-016 -1
    outer loop
      vertex -33.445 -6.94986 2
      vertex 37.4767 -10 2
      vertex -37.4767 -10 2
    endloop
  endfacet
  facet normal 0 -3.44505e-016 -1
    outer loop
      vertex -38 4.36283e-015 2
      vertex -37.4767 -10 2
      vertex -38 -9.47135 2
    endloop
  endfacet
  facet normal 0 -3.44505e-016 -1
    outer loop
      vertex -34.8019 -4.13223 2
      vertex -38 4.36283e-015 2
      vertex -33.445 -3.05014 2
    endloop
  endfacet
  facet normal 0 -3.44505e-016 -1
    outer loop
      vertex -38 4.36283e-015 2
      vertex -34.8019 -5.86777 2
      vertex -37.4767 -10 2
    endloop
  endfacet
  facet normal 0 -3.44505e-016 -1
    outer loop
      vertex -31.753 -6.56366 2
      vertex 37.4767 -10 2
      vertex -33.445 -6.94986 2
    endloop
  endfacet
  facet normal 0 -3.44505e-016 -1
    outer loop
      vertex -34.8019 -5.86777 2
      vertex -33.445 -6.94986 2
      vertex -37.4767 -10 2
    endloop
  endfacet
  facet normal 0 -3.44505e-016 -1
    outer loop
      vertex -31.753 -3.43634 2
      vertex 37.4767 -10 2
      vertex -31 -5 2
    endloop
  endfacet
  facet normal 0 -3.44505e-016 -1
    outer loop
      vertex -38 4.36283e-015 2
      vertex 37.4767 -10 2
      vertex -31.753 -3.43634 2
    endloop
  endfacet
  facet normal 0 -3.44505e-016 -1
    outer loop
      vertex -38 4.36283e-015 2
      vertex -31.753 -3.43634 2
      vertex -33.445 -3.05014 2
    endloop
  endfacet
  facet normal 0 -3.44505e-016 -1
    outer loop
      vertex 34.247 -6.56366 2
      vertex 38 -9.47135 2
      vertex 32.555 -6.94986 2
    endloop
  endfacet
  facet normal 0 -3.44505e-016 -1
    outer loop
      vertex -38 4.36283e-015 2
      vertex -34.8019 -4.13223 2
      vertex -34.8019 -5.86777 2
    endloop
  endfacet
  facet normal 0 -3.44505e-016 -1
    outer loop
      vertex 32.555 -3.05014 2
      vertex 38 4.36283e-015 2
      vertex 34.247 -3.43634 2
    endloop
  endfacet
  facet normal 0 -3.44505e-016 -1
    outer loop
      vertex 31.1981 -4.13223 2
      vertex 31.1981 -5.86777 2
      vertex -38 4.36283e-015 2
    endloop
  endfacet
  facet normal 0 -3.44505e-016 -1
    outer loop
      vertex 31.1981 -5.86777 2
      vertex 32.555 -6.94986 2
      vertex -38 4.36283e-015 2
    endloop
  endfacet
  facet normal 0 -3.44505e-016 -1
    outer loop
      vertex 38 4.36283e-015 2
      vertex 38 -9.47135 2
      vertex 34.247 -6.56366 2
    endloop
  endfacet
  facet normal 0 -3.44505e-016 -1
    outer loop
      vertex 38 4.36283e-015 2
      vertex 34.247 -6.56366 2
      vertex 35 -5 2
    endloop
  endfacet
  facet normal 0 -3.44505e-016 -1
    outer loop
      vertex 38 4.36283e-015 2
      vertex 35 -5 2
      vertex 34.247 -3.43634 2
    endloop
  endfacet
  facet normal 0 -3.44505e-016 -1
    outer loop
      vertex 38 4.36283e-015 2
      vertex 32.555 -3.05014 2
      vertex -38 4.36283e-015 2
    endloop
  endfacet
  facet normal 0 -3.44505e-016 -1
    outer loop
      vertex 32.555 -3.05014 2
      vertex 31.1981 -4.13223 2
      vertex -38 4.36283e-015 2
    endloop
  endfacet
  facet normal 0 -3.44505e-016 -1
    outer loop
      vertex -31 -5 2
      vertex 37.4767 -10 2
      vertex -31.753 -6.56366 2
    endloop
  endfacet
  facet normal 1 0 0
    outer loop
      vertex 38 -9.47135 8
      vertex 38 -9.47135 2
      vertex 38 4.36283e-015 2
    endloop
  endfacet
  facet normal 1 0 0
    outer loop
      vertex 38 -0.88505 16.5
      vertex 38 -9.47135 8
      vertex 38 9.35816e-015 16.5
    endloop
  endfacet
  facet normal 1 0 0
    outer loop
      vertex 38 9.35816e-015 16.5
      vertex 38 -9.47135 8
      vertex 38 4.36283e-015 2
    endloop
  endfacet
  facet normal 0.710669 -0.703526 1.86578e-016
    outer loop
      vertex 37.4767 -10 7.47666
      vertex 37.4767 -10 2
      vertex 38 -9.47135 2
    endloop
  endfacet
  facet normal 0.710669 -0.703526 1.86578e-016
    outer loop
      vertex 38 -9.47135 8
      vertex 37.4767 -10 7.47666
      vertex 38 -9.47135 2
    endloop
  endfacet
  facet normal 0 -1 3.44505e-016
    outer loop
      vertex -37.4767 -10 7.47666
      vertex -37.4767 -10 2
      vertex 37.4767 -10 2
    endloop
  endfacet
  facet normal 0 -1 3.44505e-016
    outer loop
      vertex 37.4767 -10 7.47666
      vertex -37.4767 -10 7.47666
      vertex 37.4767 -10 2
    endloop
  endfacet
  facet normal 1 0 0
    outer loop
      vertex -36.3582 -5.98606 11.4503
      vertex -36.3582 -5.98606 9
      vertex -36.3582 -4.01394 9
    endloop
  endfacet
  facet normal 1 0 0
    outer loop
      vertex -36.3582 -4.01394 13.4026
      vertex -36.3582 -5.98606 11.4503
      vertex -36.3582 -4.01394 9
    endloop
  endfacet
  facet normal 0.841254 0.54064 -3.063e-016
    outer loop
      vertex -35.292 -7.64512 9.80787
      vertex -35.292 -7.64512 9
      vertex -36.3582 -5.98606 9
    endloop
  endfacet
  facet normal 0.841254 0.54064 -3.063e-016
    outer loop
      vertex -36.3582 -5.98606 11.4503
      vertex -35.292 -7.64512 9.80787
      vertex -36.3582 -5.98606 9
    endloop
  endfacet
  facet normal 0.415415 0.909632 -5.15352e-016
    outer loop
      vertex -33.5051 -8.46119 9
      vertex -35.292 -7.64512 9
      vertex -35.292 -7.64512 9.80787
    endloop
  endfacet
  facet normal 0 5.6655e-016 1
    outer loop
      vertex -35.292 -7.64512 9
      vertex -33.5051 -8.46119 9
      vertex -33.476 -8.46119 9
    endloop
  endfacet
  facet normal 0 5.6655e-016 1
    outer loop
      vertex -30.0556 -6.89224 9
      vertex -35.292 -7.64512 9
      vertex -31.546 -8.18371 9
    endloop
  endfacet
  facet normal 0 5.6655e-016 1
    outer loop
      vertex -31.546 -8.18371 9
      vertex -35.292 -7.64512 9
      vertex -33.476 -8.46119 9
    endloop
  endfacet
  facet normal 0 5.6655e-016 1
    outer loop
      vertex -31.753 -6.56366 9
      vertex -35.292 -7.64512 9
      vertex -30.0556 -6.89224 9
    endloop
  endfacet
  facet normal 0 5.6655e-016 1
    outer loop
      vertex -31.753 -3.43634 9
      vertex -31 -5 9
      vertex -30.0556 -3.10776 9
    endloop
  endfacet
  facet normal 0 5.6655e-016 1
    outer loop
      vertex -33.445 -3.05014 9
      vertex -31.753 -3.43634 9
      vertex -31.546 -1.81629 9
    endloop
  endfacet
  facet normal 0 5.6655e-016 1
    outer loop
      vertex -36.3582 -4.01394 9
      vertex -35.292 -7.64512 9
      vertex -35.292 -2.35488 9
    endloop
  endfacet
  facet normal 0 5.6655e-016 1
    outer loop
      vertex -36.3582 -5.98606 9
      vertex -35.292 -7.64512 9
      vertex -36.3582 -4.01394 9
    endloop
  endfacet
  facet normal 0 5.6655e-016 1
    outer loop
      vertex -35.292 -2.35488 9
      vertex -34.8019 -4.13223 9
      vertex -33.4981 -1.53562 9
    endloop
  endfacet
  facet normal 0 5.6655e-016 1
    outer loop
      vertex -35.292 -2.35488 9
      vertex -35.292 -7.64512 9
      vertex -34.8019 -4.13223 9
    endloop
  endfacet
  facet normal 0 5.6655e-016 1
    outer loop
      vertex -33.4981 -1.53562 9
      vertex -33.445 -3.05014 9
      vertex -31.546 -1.81629 9
    endloop
  endfacet
  facet normal 0 5.6655e-016 1
    outer loop
      vertex -31.546 -1.81629 9
      vertex -31.753 -3.43634 9
      vertex -30.0556 -3.10776 9
    endloop
  endfacet
  facet normal 0 5.6655e-016 1
    outer loop
      vertex -30.0556 -3.10776 9
      vertex -31 -5 9
      vertex -29.5 -5 9
    endloop
  endfacet
  facet normal 0 5.6655e-016 1
    outer loop
      vertex -29.5 -5 9
      vertex -31.753 -6.56366 9
      vertex -30.0556 -6.89224 9
    endloop
  endfacet
  facet normal 0 5.6655e-016 1
    outer loop
      vertex -33.445 -6.94986 9
      vertex -35.292 -7.64512 9
      vertex -31.753 -6.56366 9
    endloop
  endfacet
  facet normal 0 5.6655e-016 1
    outer loop
      vertex -31 -5 9
      vertex -31.753 -6.56366 9
      vertex -29.5 -5 9
    endloop
  endfacet
  facet normal 0 5.6655e-016 1
    outer loop
      vertex -34.8019 -4.13223 9
      vertex -35.292 -7.64512 9
      vertex -34.8019 -5.86777 9
    endloop
  endfacet
  facet normal 0 5.6655e-016 1
    outer loop
      vertex -34.8019 -4.13223 9
      vertex -33.445 -3.05014 9
      vertex -33.4981 -1.53562 9
    endloop
  endfacet
  facet normal 0 5.6655e-016 1
    outer loop
      vertex -33.445 -6.94986 9
      vertex -34.8019 -5.86777 9
      vertex -35.292 -7.64512 9
    endloop
  endfacet
  facet normal -0.142315 0.989821 -5.60783e-016
    outer loop
      vertex -31.546 -8.18371 9.27469
      vertex -31.546 -8.18371 9
      vertex -33.476 -8.46119 9
    endloop
  endfacet
  facet normal -0.654861 0.755749 -4.2817e-016
    outer loop
      vertex -30.0556 -6.89224 9
      vertex -31.546 -8.18371 9
      vertex -30.0556 -6.89224 10.5532
    endloop
  endfacet
  facet normal -0.654861 0.755749 -4.2817e-016
    outer loop
      vertex -30.0556 -6.89224 10.5532
      vertex -31.546 -8.18371 9
      vertex -31.546 -8.18371 9.27469
    endloop
  endfacet
  facet normal -0.959493 0.281733 -1.59616e-016
    outer loop
      vertex -29.5 -5 9
      vertex -30.0556 -6.89224 9
      vertex -29.5 -5 12.4264
    endloop
  endfacet
  facet normal -0.959493 0.281733 -1.59616e-016
    outer loop
      vertex -29.5 -5 12.4264
      vertex -30.0556 -6.89224 9
      vertex -30.0556 -6.89224 10.5532
    endloop
  endfacet
  facet normal -0.959493 -0.281733 1.59616e-016
    outer loop
      vertex -29.5 -5 9
      vertex -29.5 -5 12.4264
      vertex -30.0556 -3.10776 9
    endloop
  endfacet
  facet normal -0.959493 -0.281733 1.59616e-016
    outer loop
      vertex -30.0556 -3.10776 9
      vertex -29.5 -5 12.4264
      vertex -30.0556 -3.10776 14.2996
    endloop
  endfacet
  facet normal -0.654861 -0.755749 4.2817e-016
    outer loop
      vertex -31.546 -1.81629 9
      vertex -30.0556 -3.10776 9
      vertex -30.0556 -3.10776 14.2996
    endloop
  endfacet
  facet normal -0.654861 -0.755749 4.2817e-016
    outer loop
      vertex -31.546 -1.81629 15.5781
      vertex -31.546 -1.81629 9
      vertex -30.0556 -3.10776 14.2996
    endloop
  endfacet
  facet normal -0.142315 -0.989821 5.60783e-016
    outer loop
      vertex -33.4981 -1.53562 9
      vertex -31.546 -1.81629 9
      vertex -31.546 -1.81629 15.5781
    endloop
  endfacet
  facet normal -0.142315 -0.989821 5.60783e-016
    outer loop
      vertex -33.4981 -1.53562 15.856
      vertex -33.4981 -1.53562 9
      vertex -31.546 -1.81629 15.5781
    endloop
  endfacet
  facet normal 0.415415 -0.909632 5.15352e-016
    outer loop
      vertex -35.292 -2.35488 9
      vertex -33.4981 -1.53562 9
      vertex -33.4981 -1.53562 15.856
    endloop
  endfacet
  facet normal 0.415415 -0.909632 5.15352e-016
    outer loop
      vertex -35.292 -2.35488 15.0449
      vertex -35.292 -2.35488 9
      vertex -33.4981 -1.53562 15.856
    endloop
  endfacet
  facet normal 0.841254 -0.54064 3.063e-016
    outer loop
      vertex -36.3582 -4.01394 9
      vertex -35.292 -2.35488 9
      vertex -35.292 -2.35488 15.0449
    endloop
  endfacet
  facet normal 0.841254 -0.54064 3.063e-016
    outer loop
      vertex -36.3582 -4.01394 13.4026
      vertex -36.3582 -4.01394 9
      vertex -35.292 -2.35488 15.0449
    endloop
  endfacet
  facet normal 0.866025 -0.353553 -0.353553
    outer loop
      vertex -25.6 5.9131e-015 6.5
      vertex -24.8 6.58819e-015 8.45959
      vertex -24.8 -4.4808 12.9404
    endloop
  endfacet
  facet normal 0.866025 -0.353553 -0.353553
    outer loop
      vertex -25.6 -5.46554 11.9655
      vertex -25.6 5.9131e-015 6.5
      vertex -24.8 -4.4808 12.9404
    endloop
  endfacet
  facet normal 0.866025 0.353553 0.353553
    outer loop
      vertex -24.8 -6.45029 10.9907
      vertex -24.8 5.23801e-015 4.54041
      vertex -25.6 5.9131e-015 6.5
    endloop
  endfacet
  facet normal 0.866025 0.353553 0.353553
    outer loop
      vertex -25.6 -5.46554 11.9655
      vertex -24.8 -6.45029 10.9907
      vertex -25.6 5.9131e-015 6.5
    endloop
  endfacet
  facet normal 0 0.707107 0.707107
    outer loop
      vertex -23.2 5.23801e-015 4.54041
      vertex -24.8 5.23801e-015 4.54041
      vertex -23.2 -6.45029 10.9907
    endloop
  endfacet
  facet normal 0 0.707107 0.707107
    outer loop
      vertex -23.2 -6.45029 10.9907
      vertex -24.8 5.23801e-015 4.54041
      vertex -24.8 -6.45029 10.9907
    endloop
  endfacet
  facet normal -0.866025 0.353553 0.353553
    outer loop
      vertex -22.4 5.9131e-015 6.5
      vertex -23.2 5.23801e-015 4.54041
      vertex -22.4 -5.46554 11.9655
    endloop
  endfacet
  facet normal -0.866025 0.353553 0.353553
    outer loop
      vertex -22.4 -5.46554 11.9655
      vertex -23.2 5.23801e-015 4.54041
      vertex -23.2 -6.45029 10.9907
    endloop
  endfacet
  facet normal -0.866025 -0.353553 -0.353553
    outer loop
      vertex -22.4 5.9131e-015 6.5
      vertex -22.4 -5.46554 11.9655
      vertex -23.2 6.58819e-015 8.45959
    endloop
  endfacet
  facet normal -0.866025 -0.353553 -0.353553
    outer loop
      vertex -23.2 6.58819e-015 8.45959
      vertex -22.4 -5.46554 11.9655
      vertex -23.2 -4.4808 12.9404
    endloop
  endfacet
  facet normal 0 -0.707107 -0.707107
    outer loop
      vertex -24.8 6.58819e-015 8.45959
      vertex -23.2 6.58819e-015 8.45959
      vertex -23.2 -4.4808 12.9404
    endloop
  endfacet
  facet normal 0 -0.707107 -0.707107
    outer loop
      vertex -24.8 -4.4808 12.9404
      vertex -24.8 6.58819e-015 8.45959
      vertex -23.2 -4.4808 12.9404
    endloop
  endfacet
  facet normal 0.866025 1.72253e-016 0.5
    outer loop
      vertex -12.47 -9.12835 8.33955
      vertex -12.47 6.54684e-015 8.33955
      vertex -13.42 7.1137e-015 9.985
    endloop
  endfacet
  facet normal 0.866025 1.72253e-016 0.5
    outer loop
      vertex -13.42 -7.46619 9.985
      vertex -12.47 -9.12835 8.33955
      vertex -13.42 7.1137e-015 9.985
    endloop
  endfacet
  facet normal 0.866025 -1.72253e-016 -0.5
    outer loop
      vertex -13.42 7.1137e-015 9.985
      vertex -12.47 7.68057e-015 11.6304
      vertex -12.47 -5.80404 11.6304
    endloop
  endfacet
  facet normal 0.866025 -1.72253e-016 -0.5
    outer loop
      vertex -13.42 -7.46619 9.985
      vertex -13.42 7.1137e-015 9.985
      vertex -12.47 -5.80404 11.6304
    endloop
  endfacet
  facet normal 0 3.44505e-016 1
    outer loop
      vertex -10.57 -9.12835 8.33955
      vertex -10.57 6.54684e-015 8.33955
      vertex -12.47 6.54684e-015 8.33955
    endloop
  endfacet
  facet normal 0 3.44505e-016 1
    outer loop
      vertex -12.47 -9.12835 8.33955
      vertex -10.57 -9.12835 8.33955
      vertex -12.47 6.54684e-015 8.33955
    endloop
  endfacet
  facet normal -0.866025 1.72253e-016 0.5
    outer loop
      vertex -9.62 7.1137e-015 9.985
      vertex -10.57 6.54684e-015 8.33955
      vertex -9.62 -7.46619 9.985
    endloop
  endfacet
  facet normal -0.866025 1.72253e-016 0.5
    outer loop
      vertex -9.62 -7.46619 9.985
      vertex -10.57 6.54684e-015 8.33955
      vertex -10.57 -9.12835 8.33955
    endloop
  endfacet
  facet normal -0.866025 -1.72253e-016 -0.5
    outer loop
      vertex -9.62 7.1137e-015 9.985
      vertex -9.62 -7.46619 9.985
      vertex -10.57 7.68057e-015 11.6304
    endloop
  endfacet
  facet normal -0.866025 -1.72253e-016 -0.5
    outer loop
      vertex -10.57 7.68057e-015 11.6304
      vertex -9.62 -7.46619 9.985
      vertex -10.57 -5.80404 11.6304
    endloop
  endfacet
  facet normal 0 -3.44505e-016 -1
    outer loop
      vertex -10.57 7.68057e-015 11.6304
      vertex -10.57 -5.80404 11.6304
      vertex -12.47 7.68057e-015 11.6304
    endloop
  endfacet
  facet normal 0 -3.44505e-016 -1
    outer loop
      vertex -12.47 7.68057e-015 11.6304
      vertex -10.57 -5.80404 11.6304
      vertex -12.47 -5.80404 11.6304
    endloop
  endfacet
  facet normal 0.866025 -0.353553 -0.353553
    outer loop
      vertex 22.4 5.9131e-015 6.5
      vertex 23.2 6.58819e-015 8.45959
      vertex 23.2 -4.4808 12.9404
    endloop
  endfacet
  facet normal 0.866025 -0.353553 -0.353553
    outer loop
      vertex 22.4 -5.46554 11.9655
      vertex 22.4 5.9131e-015 6.5
      vertex 23.2 -4.4808 12.9404
    endloop
  endfacet
  facet normal 0.866025 0.353553 0.353553
    outer loop
      vertex 23.2 -6.45029 10.9907
      vertex 23.2 5.23801e-015 4.54041
      vertex 22.4 5.9131e-015 6.5
    endloop
  endfacet
  facet normal 0.866025 0.353553 0.353553
    outer loop
      vertex 22.4 -5.46554 11.9655
      vertex 23.2 -6.45029 10.9907
      vertex 22.4 5.9131e-015 6.5
    endloop
  endfacet
  facet normal 0 0.707107 0.707107
    outer loop
      vertex 24.8 5.23801e-015 4.54041
      vertex 23.2 5.23801e-015 4.54041
      vertex 24.8 -6.45029 10.9907
    endloop
  endfacet
  facet normal 0 0.707107 0.707107
    outer loop
      vertex 24.8 -6.45029 10.9907
      vertex 23.2 5.23801e-015 4.54041
      vertex 23.2 -6.45029 10.9907
    endloop
  endfacet
  facet normal -0.866025 0.353553 0.353553
    outer loop
      vertex 25.6 5.9131e-015 6.5
      vertex 24.8 5.23801e-015 4.54041
      vertex 25.6 -5.46554 11.9655
    endloop
  endfacet
  facet normal -0.866025 0.353553 0.353553
    outer loop
      vertex 25.6 -5.46554 11.9655
      vertex 24.8 5.23801e-015 4.54041
      vertex 24.8 -6.45029 10.9907
    endloop
  endfacet
  facet normal -0.866025 -0.353553 -0.353553
    outer loop
      vertex 25.6 5.9131e-015 6.5
      vertex 25.6 -5.46554 11.9655
      vertex 24.8 6.58819e-015 8.45959
    endloop
  endfacet
  facet normal -0.866025 -0.353553 -0.353553
    outer loop
      vertex 24.8 6.58819e-015 8.45959
      vertex 25.6 -5.46554 11.9655
      vertex 24.8 -4.4808 12.9404
    endloop
  endfacet
  facet normal 0 -0.707107 -0.707107
    outer loop
      vertex 23.2 6.58819e-015 8.45959
      vertex 24.8 6.58819e-015 8.45959
      vertex 24.8 -4.4808 12.9404
    endloop
  endfacet
  facet normal 0 -0.707107 -0.707107
    outer loop
      vertex 23.2 -4.4808 12.9404
      vertex 23.2 6.58819e-015 8.45959
      vertex 24.8 -4.4808 12.9404
    endloop
  endfacet
  facet normal 0.841254 0.54064 -3.063e-016
    outer loop
      vertex 30.708 -7.64512 9.80787
      vertex 30.708 -7.64512 9
      vertex 29.6418 -5.98606 9
    endloop
  endfacet
  facet normal 0.841254 0.54064 -3.063e-016
    outer loop
      vertex 29.6418 -5.98606 11.4503
      vertex 30.708 -7.64512 9.80787
      vertex 29.6418 -5.98606 9
    endloop
  endfacet
  facet normal 1 0 0
    outer loop
      vertex 29.6418 -5.98606 11.4503
      vertex 29.6418 -5.98606 9
      vertex 29.6418 -4.01394 9
    endloop
  endfacet
  facet normal 1 0 0
    outer loop
      vertex 29.6418 -4.01394 13.4026
      vertex 29.6418 -5.98606 11.4503
      vertex 29.6418 -4.01394 9
    endloop
  endfacet
  facet normal 0.415415 0.909632 -5.15352e-016
    outer loop
      vertex 32.4949 -8.46119 9
      vertex 30.708 -7.64512 9
      vertex 30.708 -7.64512 9.80787
    endloop
  endfacet
  facet normal 0 5.6655e-016 1
    outer loop
      vertex 30.708 -7.64512 9
      vertex 32.4949 -8.46119 9
      vertex 32.524 -8.46119 9
    endloop
  endfacet
  facet normal 0 5.6655e-016 1
    outer loop
      vertex 35.9444 -6.89224 9
      vertex 30.708 -7.64512 9
      vertex 34.454 -8.18371 9
    endloop
  endfacet
  facet normal 0 5.6655e-016 1
    outer loop
      vertex 34.454 -8.18371 9
      vertex 30.708 -7.64512 9
      vertex 32.524 -8.46119 9
    endloop
  endfacet
  facet normal 0 5.6655e-016 1
    outer loop
      vertex 34.247 -6.56366 9
      vertex 30.708 -7.64512 9
      vertex 35.9444 -6.89224 9
    endloop
  endfacet
  facet normal 0 5.6655e-016 1
    outer loop
      vertex 34.247 -3.43634 9
      vertex 35 -5 9
      vertex 35.9444 -3.10776 9
    endloop
  endfacet
  facet normal 0 5.6655e-016 1
    outer loop
      vertex 32.555 -3.05014 9
      vertex 34.247 -3.43634 9
      vertex 34.454 -1.81629 9
    endloop
  endfacet
  facet normal 0 5.6655e-016 1
    outer loop
      vertex 29.6418 -4.01394 9
      vertex 30.708 -7.64512 9
      vertex 30.708 -2.35488 9
    endloop
  endfacet
  facet normal 0 5.6655e-016 1
    outer loop
      vertex 29.6418 -5.98606 9
      vertex 30.708 -7.64512 9
      vertex 29.6418 -4.01394 9
    endloop
  endfacet
  facet normal 0 5.6655e-016 1
    outer loop
      vertex 30.708 -2.35488 9
      vertex 31.1981 -4.13223 9
      vertex 32.5019 -1.53562 9
    endloop
  endfacet
  facet normal 0 5.6655e-016 1
    outer loop
      vertex 30.708 -2.35488 9
      vertex 30.708 -7.64512 9
      vertex 31.1981 -4.13223 9
    endloop
  endfacet
  facet normal 0 5.6655e-016 1
    outer loop
      vertex 32.5019 -1.53562 9
      vertex 32.555 -3.05014 9
      vertex 34.454 -1.81629 9
    endloop
  endfacet
  facet normal 0 5.6655e-016 1
    outer loop
      vertex 34.454 -1.81629 9
      vertex 34.247 -3.43634 9
      vertex 35.9444 -3.10776 9
    endloop
  endfacet
  facet normal 0 5.6655e-016 1
    outer loop
      vertex 35.9444 -3.10776 9
      vertex 35 -5 9
      vertex 36.5 -5 9
    endloop
  endfacet
  facet normal 0 5.6655e-016 1
    outer loop
      vertex 36.5 -5 9
      vertex 34.247 -6.56366 9
      vertex 35.9444 -6.89224 9
    endloop
  endfacet
  facet normal 0 5.6655e-016 1
    outer loop
      vertex 32.555 -6.94986 9
      vertex 30.708 -7.64512 9
      vertex 34.247 -6.56366 9
    endloop
  endfacet
  facet normal 0 5.6655e-016 1
    outer loop
      vertex 35 -5 9
      vertex 34.247 -6.56366 9
      vertex 36.5 -5 9
    endloop
  endfacet
  facet normal 0 5.6655e-016 1
    outer loop
      vertex 31.1981 -4.13223 9
      vertex 30.708 -7.64512 9
      vertex 31.1981 -5.86777 9
    endloop
  endfacet
  facet normal 0 5.6655e-016 1
    outer loop
      vertex 31.1981 -4.13223 9
      vertex 32.555 -3.05014 9
      vertex 32.5019 -1.53562 9
    endloop
  endfacet
  facet normal 0 5.6655e-016 1
    outer loop
      vertex 32.555 -6.94986 9
      vertex 31.1981 -5.86777 9
      vertex 30.708 -7.64512 9
    endloop
  endfacet
  facet normal -0.142315 0.989821 -5.60783e-016
    outer loop
      vertex 34.454 -8.18371 9.27469
      vertex 34.454 -8.18371 9
      vertex 32.524 -8.46119 9
    endloop
  endfacet
  facet normal -0.654861 0.755749 -4.2817e-016
    outer loop
      vertex 35.9444 -6.89224 9
      vertex 34.454 -8.18371 9
      vertex 35.9444 -6.89224 10.5532
    endloop
  endfacet
  facet normal -0.654861 0.755749 -4.2817e-016
    outer loop
      vertex 35.9444 -6.89224 10.5532
      vertex 34.454 -8.18371 9
      vertex 34.454 -8.18371 9.27469
    endloop
  endfacet
  facet normal -0.959493 0.281733 -1.59616e-016
    outer loop
      vertex 36.5 -5 9
      vertex 35.9444 -6.89224 9
      vertex 36.5 -5 12.4264
    endloop
  endfacet
  facet normal -0.959493 0.281733 -1.59616e-016
    outer loop
      vertex 36.5 -5 12.4264
      vertex 35.9444 -6.89224 9
      vertex 35.9444 -6.89224 10.5532
    endloop
  endfacet
  facet normal -0.959493 -0.281733 1.59616e-016
    outer loop
      vertex 36.5 -5 9
      vertex 36.5 -5 12.4264
      vertex 35.9444 -3.10776 9
    endloop
  endfacet
  facet normal -0.959493 -0.281733 1.59616e-016
    outer loop
      vertex 35.9444 -3.10776 9
      vertex 36.5 -5 12.4264
      vertex 35.9444 -3.10776 14.2996
    endloop
  endfacet
  facet normal -0.654861 -0.755749 4.2817e-016
    outer loop
      vertex 34.454 -1.81629 9
      vertex 35.9444 -3.10776 9
      vertex 35.9444 -3.10776 14.2996
    endloop
  endfacet
  facet normal -0.654861 -0.755749 4.2817e-016
    outer loop
      vertex 34.454 -1.81629 15.5781
      vertex 34.454 -1.81629 9
      vertex 35.9444 -3.10776 14.2996
    endloop
  endfacet
  facet normal -0.142315 -0.989821 5.60783e-016
    outer loop
      vertex 32.5019 -1.53562 9
      vertex 34.454 -1.81629 9
      vertex 34.454 -1.81629 15.5781
    endloop
  endfacet
  facet normal -0.142315 -0.989821 5.60783e-016
    outer loop
      vertex 32.5019 -1.53562 15.856
      vertex 32.5019 -1.53562 9
      vertex 34.454 -1.81629 15.5781
    endloop
  endfacet
  facet normal 0.415415 -0.909632 5.15352e-016
    outer loop
      vertex 30.708 -2.35488 9
      vertex 32.5019 -1.53562 9
      vertex 32.5019 -1.53562 15.856
    endloop
  endfacet
  facet normal 0.415415 -0.909632 5.15352e-016
    outer loop
      vertex 30.708 -2.35488 15.0449
      vertex 30.708 -2.35488 9
      vertex 32.5019 -1.53562 15.856
    endloop
  endfacet
  facet normal 0.841254 -0.54064 3.063e-016
    outer loop
      vertex 29.6418 -4.01394 9
      vertex 30.708 -2.35488 9
      vertex 30.708 -2.35488 15.0449
    endloop
  endfacet
  facet normal 0.841254 -0.54064 3.063e-016
    outer loop
      vertex 29.6418 -4.01394 13.4026
      vertex 29.6418 -4.01394 9
      vertex 30.708 -2.35488 15.0449
    endloop
  endfacet
  facet normal 0.62349 0.781831 -4.42946e-016
    outer loop
      vertex -33.445 -6.94986 2
      vertex -34.8019 -5.86777 2
      vertex -33.445 -6.94986 9
    endloop
  endfacet
  facet normal 0.62349 0.781831 -4.42946e-016
    outer loop
      vertex -33.445 -6.94986 9
      vertex -34.8019 -5.86777 2
      vertex -34.8019 -5.86777 9
    endloop
  endfacet
  facet normal 1 0 0
    outer loop
      vertex -34.8019 -5.86777 2
      vertex -34.8019 -4.13223 2
      vertex -34.8019 -4.13223 9
    endloop
  endfacet
  facet normal 1 0 0
    outer loop
      vertex -34.8019 -5.86777 9
      vertex -34.8019 -5.86777 2
      vertex -34.8019 -4.13223 9
    endloop
  endfacet
  facet normal 0.62349 -0.781831 4.42946e-016
    outer loop
      vertex -34.8019 -4.13223 2
      vertex -33.445 -3.05014 2
      vertex -33.445 -3.05014 9
    endloop
  endfacet
  facet normal 0.62349 -0.781831 4.42946e-016
    outer loop
      vertex -34.8019 -4.13223 9
      vertex -34.8019 -4.13223 2
      vertex -33.445 -3.05014 9
    endloop
  endfacet
  facet normal -0.222521 -0.974928 5.52345e-016
    outer loop
      vertex -33.445 -3.05014 2
      vertex -31.753 -3.43634 2
      vertex -31.753 -3.43634 9
    endloop
  endfacet
  facet normal -0.222521 -0.974928 5.52345e-016
    outer loop
      vertex -33.445 -3.05014 9
      vertex -33.445 -3.05014 2
      vertex -31.753 -3.43634 9
    endloop
  endfacet
  facet normal -0.900969 -0.433884 2.45817e-016
    outer loop
      vertex -31 -5 2
      vertex -31 -5 9
      vertex -31.753 -3.43634 2
    endloop
  endfacet
  facet normal -0.900969 -0.433884 2.45817e-016
    outer loop
      vertex -31.753 -3.43634 2
      vertex -31 -5 9
      vertex -31.753 -3.43634 9
    endloop
  endfacet
  facet normal -0.900969 0.433884 -2.45817e-016
    outer loop
      vertex -31 -5 2
      vertex -31.753 -6.56366 2
      vertex -31 -5 9
    endloop
  endfacet
  facet normal -0.900969 0.433884 -2.45817e-016
    outer loop
      vertex -31 -5 9
      vertex -31.753 -6.56366 2
      vertex -31.753 -6.56366 9
    endloop
  endfacet
  facet normal -0.222521 0.974928 -5.52345e-016
    outer loop
      vertex -31.753 -6.56366 2
      vertex -33.445 -6.94986 2
      vertex -31.753 -6.56366 9
    endloop
  endfacet
  facet normal -0.222521 0.974928 -5.52345e-016
    outer loop
      vertex -31.753 -6.56366 9
      vertex -33.445 -6.94986 2
      vertex -33.445 -6.94986 9
    endloop
  endfacet
  facet normal 1 0 0
    outer loop
      vertex 31.1981 -5.86777 2
      vertex 31.1981 -4.13223 2
      vertex 31.1981 -4.13223 9
    endloop
  endfacet
  facet normal 1 0 0
    outer loop
      vertex 31.1981 -5.86777 9
      vertex 31.1981 -5.86777 2
      vertex 31.1981 -4.13223 9
    endloop
  endfacet
  facet normal 0.62349 0.781831 -4.42946e-016
    outer loop
      vertex 32.555 -6.94986 2
      vertex 31.1981 -5.86777 2
      vertex 32.555 -6.94986 9
    endloop
  endfacet
  facet normal 0.62349 0.781831 -4.42946e-016
    outer loop
      vertex 32.555 -6.94986 9
      vertex 31.1981 -5.86777 2
      vertex 31.1981 -5.86777 9
    endloop
  endfacet
  facet normal 0.62349 -0.781831 4.42946e-016
    outer loop
      vertex 31.1981 -4.13223 2
      vertex 32.555 -3.05014 2
      vertex 32.555 -3.05014 9
    endloop
  endfacet
  facet normal 0.62349 -0.781831 4.42946e-016
    outer loop
      vertex 31.1981 -4.13223 9
      vertex 31.1981 -4.13223 2
      vertex 32.555 -3.05014 9
    endloop
  endfacet
  facet normal -0.222521 -0.974928 5.52345e-016
    outer loop
      vertex 32.555 -3.05014 2
      vertex 34.247 -3.43634 2
      vertex 34.247 -3.43634 9
    endloop
  endfacet
  facet normal -0.222521 -0.974928 5.52345e-016
    outer loop
      vertex 32.555 -3.05014 9
      vertex 32.555 -3.05014 2
      vertex 34.247 -3.43634 9
    endloop
  endfacet
  facet normal -0.900969 -0.433884 2.45817e-016
    outer loop
      vertex 35 -5 2
      vertex 35 -5 9
      vertex 34.247 -3.43634 2
    endloop
  endfacet
  facet normal -0.900969 -0.433884 2.45817e-016
    outer loop
      vertex 34.247 -3.43634 2
      vertex 35 -5 9
      vertex 34.247 -3.43634 9
    endloop
  endfacet
  facet normal -0.900969 0.433884 -2.45817e-016
    outer loop
      vertex 35 -5 2
      vertex 34.247 -6.56366 2
      vertex 35 -5 9
    endloop
  endfacet
  facet normal -0.900969 0.433884 -2.45817e-016
    outer loop
      vertex 35 -5 9
      vertex 34.247 -6.56366 2
      vertex 34.247 -6.56366 9
    endloop
  endfacet
  facet normal -0.222521 0.974928 -5.52345e-016
    outer loop
      vertex 34.247 -6.56366 2
      vertex 32.555 -6.94986 2
      vertex 34.247 -6.56366 9
    endloop
  endfacet
  facet normal -0.222521 0.974928 -5.52345e-016
    outer loop
      vertex 34.247 -6.56366 9
      vertex 32.555 -6.94986 2
      vertex 32.555 -6.94986 9
    endloop
  endfacet
endsolid OpenSCAD_Model
