  0
SECTION
  2
HEADER
  9
$ACADVER
  1
AC1009
  9
$DWGCODEPAGE
  3
ansi_1252
  9
$INSBASE
 10
0.0
 20
0.0
 30
0.0
  9
$EXTMIN
 10
-49.99999999999999
 20
-49.99999999999695
 30
0.0
  9
$EXTMAX
 10
50.00000000000001
 20
53.54428044280449
 30
0.0
  9
$LIMMIN
 10
0.0
 20
0.0
  9
$LIMMAX
 10
12.0
 20
9.0
  9
$ORTHOMODE
 70
     0
  9
$REGENMODE
 70
     1
  9
$FILLMODE
 70
     1
  9
$QTEXTMODE
 70
     0
  9
$MIRRTEXT
 70
     1
  9
$DRAGMODE
 70
     2
  9
$LTSCALE
 40
1.0
  9
$OSMODE
 70
    37
  9
$ATTMODE
 70
     1
  9
$TEXTSIZE
 40
0.2
  9
$TRACEWID
 40
0.05
  9
$TEXTSTYLE
  7
STANDARD
  9
$CLAYER
  8
0
  9
$CELTYPE
  6
BYLAYER
  9
$CECOLOR
 62
   256
  9
$DIMSCALE
 40
1.0
  9
$DIMASZ
 40
0.18
  9
$DIMEXO
 40
0.0625
  9
$DIMDLI
 40
0.38
  9
$DIMRND
 40
0.0
  9
$DIMDLE
 40
0.0
  9
$DIMEXE
 40
0.18
  9
$DIMTP
 40
0.0
  9
$DIMTM
 40
0.0
  9
$DIMTXT
 40
0.18
  9
$DIMCEN
 40
0.09
  9
$DIMTSZ
 40
0.0
  9
$DIMTOL
 70
     0
  9
$DIMLIM
 70
     0
  9
$DIMTIH
 70
     1
  9
$DIMTOH
 70
     1
  9
$DIMSE1
 70
     0
  9
$DIMSE2
 70
     0
  9
$DIMTAD
 70
     0
  9
$DIMZIN
 70
     0
  9
$DIMBLK
  1

  9
$DIMASO
 70
     1
  9
$DIMSHO
 70
     1
  9
$DIMPOST
  1

  9
$DIMAPOST
  1

  9
$DIMALT
 70
     0
  9
$DIMALTD
 70
     2
  9
$DIMALTF
 40
25.4
  9
$DIMLFAC
 40
1.0
  9
$DIMTOFL
 70
     0
  9
$DIMTVP
 40
0.0
  9
$DIMTIX
 70
     0
  9
$DIMSOXD
 70
     0
  9
$DIMSAH
 70
     0
  9
$DIMBLK1
  1

  9
$DIMBLK2
  1

  9
$DIMSTYLE
  2
STANDARD
  9
$DIMCLRD
 70
     0
  9
$DIMCLRE
 70
     0
  9
$DIMCLRT
 70
     0
  9
$DIMTFAC
 40
1.0
  9
$DIMGAP
 40
0.09
  9
$LUNITS
 70
     2
  9
$LUPREC
 70
     4
  9
$SKETCHINC
 40
0.1
  9
$FILLETRAD
 40
0.5
  9
$AUNITS
 70
     0
  9
$AUPREC
 70
     0
  9
$MENU
  1
.
  9
$ELEVATION
 40
0.0
  9
$PELEVATION
 40
0.0
  9
$THICKNESS
 40
0.0
  9
$LIMCHECK
 70
     0
  9
$CHAMFERA
 40
0.5
  9
$CHAMFERB
 40
0.5
  9
$SKPOLY
 70
     0
  9
$TDCREATE
 40
2454910.5
  9
$TDUPDATE
 40
2456409.549900393
  9
$TDINDWG
 40
0.0000000116
  9
$TDUSRTIMER
 40
0.0000000116
  9
$USRTIMER
 70
     1
  9
$ANGBASE
 50
0.0
  9
$ANGDIR
 70
     0
  9
$PDMODE
 70
     0
  9
$PDSIZE
 40
0.0
  9
$PLINEWID
 40
0.0
  9
$COORDS
 70
     1
  9
$SPLFRAME
 70
     0
  9
$SPLINETYPE
 70
     6
  9
$SPLINESEGS
 70
     8
  9
$ATTDIA
 70
     0
  9
$ATTREQ
 70
     1
  9
$HANDLING
 70
     1
  9
$HANDSEED
  5
27D
  9
$SURFTAB1
 70
     6
  9
$SURFTAB2
 70
     6
  9
$SURFTYPE
 70
     6
  9
$SURFU
 70
     6
  9
$SURFV
 70
     6
  9
$UCSNAME
  2

  9
$UCSORG
 10
0.0
 20
0.0
 30
0.0
  9
$UCSXDIR
 10
1.0
 20
0.0
 30
0.0
  9
$UCSYDIR
 10
0.0
 20
1.0
 30
0.0
  9
$PUCSNAME
  2

  9
$PUCSORG
 10
0.0
 20
0.0
 30
0.0
  9
$PUCSXDIR
 10
1.0
 20
0.0
 30
0.0
  9
$PUCSYDIR
 10
0.0
 20
1.0
 30
0.0
  9
$USERI1
 70
     0
  9
$USERI2
 70
     0
  9
$USERI3
 70
     0
  9
$USERI4
 70
     0
  9
$USERI5
 70
     0
  9
$USERR1
 40
0.0
  9
$USERR2
 40
0.0
  9
$USERR3
 40
0.0
  9
$USERR4
 40
0.0
  9
$USERR5
 40
0.0
  9
$WORLDVIEW
 70
     1
  9
$SHADEDGE
 70
     3
  9
$SHADEDIF
 70
    70
  9
$TILEMODE
 70
     1
  9
$MAXACTVP
 70
    64
  9
$PLIMCHECK
 70
     0
  9
$PEXTMIN
 10
1.000000000000000E+20
 20
1.000000000000000E+20
 30
1.000000000000000E+20
  9
$PEXTMAX
 10
-1.000000000000000E+20
 20
-1.000000000000000E+20
 30
-1.000000000000000E+20
  9
$PLIMMIN
 10
0.0
 20
0.0
  9
$PLIMMAX
 10
12.0
 20
9.0
  9
$UNITMODE
 70
     0
  9
$VISRETAIN
 70
     1
  9
$PLINEGEN
 70
     0
  9
$PSLTSCALE
 70
     1
  0
ENDSEC
  0
SECTION
  2
TABLES
  0
TABLE
  2
VPORT
 70
     1
  0
VPORT
  2
*ACTIVE
 70
     0
 10
0.0
 20
0.0
 11
1.0
 21
1.0
 12
10.42990654205607
 22
4.5
 13
0.0
 23
0.0
 14
0.5
 24
0.5
 15
0.5
 25
0.5
 16
0.0
 26
0.0
 36
1.0
 17
0.0
 27
0.0
 37
0.0
 40
9.0
 41
1.972972972850329
 42
50.0
 43
0.0
 44
0.0
 50
0.0
 51
0.0
 71
     0
 72
   100
 73
     1
 74
     3
 75
     0
 76
     0
 77
     0
 78
     0
  0
ENDTAB
  0
TABLE
  2
LTYPE
 70
     2
  0
LTYPE
  2
CONTINUOUS
 70
     0
  3
Solid line
 72
    65
 73
     0
 40
0.0
  0
LTYPE
  2
CONTINUOUS2
 70
     0
  3
Solid Line
 72
    65
 73
     0
 40
0.0
  0
ENDTAB
  0
TABLE
  2
LAYER
 70
     1
  0
LAYER
  2
0
 70
     0
 62
     7
  6
CONTINUOUS
  0
ENDTAB
  0
TABLE
  2
STYLE
 70
     1
  0
STYLE
  2
STANDARD
 70
     0
 40
0.0
 41
1.0
 50
0.0
 71
     0
 42
0.2
  3
txt
  4

  0
ENDTAB
  0
TABLE
  2
VIEW
 70
     0
  0
ENDTAB
  0
TABLE
  2
UCS
 70
     0
  0
ENDTAB
  0
TABLE
  2
APPID
 70
     1
  0
APPID
  2
ACAD
 70
     0
  0
ENDTAB
  0
TABLE
  2
DIMSTYLE
 70
     1
  0
DIMSTYLE
  2
STANDARD
 70
     0
  3

  4

  5

  6

  7

 40
1.0
 41
0.18
 42
0.0625
 43
0.38
 44
0.18
 45
0.0
 46
0.0
 47
0.0
 48
0.0
140
0.18
141
0.09
142
0.0
143
25.4
144
1.0
145
0.0
146
1.0
147
0.09
 71
     0
 72
     0
 73
     1
 74
     1
 75
     0
 76
     0
 77
     0
 78
     0
170
     0
171
     2
172
     0
173
     0
174
     0
175
     0
176
     0
177
     0
178
     0
  0
ENDTAB
  0
ENDSEC
  0
SECTION
  2
BLOCKS
  0
BLOCK
  8
0
  2
$MODEL_SPACE
 70
     0
 10
0.0
 20
0.0
 30
0.0
  3
$MODEL_SPACE
  1

  0
ENDBLK
  5
21
  8
0
  0
BLOCK
 67
     1
  8
0
  2
$PAPER_SPACE
 70
     0
 10
0.0
 20
0.0
 30
0.0
  3
$PAPER_SPACE
  1

  0
ENDBLK
  5
1D
 67
     1
  8
0
  0
ENDSEC
  0
SECTION
  2
ENTITIES
  0
POLYLINE
  5
3C
  8
0
 66
     1
 10
0.0
 20
0.0
 30
0.0
 70
     1
  0
VERTEX
  5
4A
  8
0
 10
-21.65063509461082
 20
14.05000000000026
 30
0.0
 42
0.4142135623730951
  0
VERTEX
  5
4B
  8
0
 10
-23.20063509461082
 20
12.50000000000026
 30
0.0
 42
0.4142135623730951
  0
VERTEX
  5
4C
  8
0
 10
-21.65063509461082
 20
10.95000000000026
 30
0.0
 42
0.4142135623730951
  0
VERTEX
  5
4D
  8
0
 10
-20.10063509461082
 20
12.50000000000026
 30
0.0
 42
0.4142135623730951
  0
SEQEND
  5
4E
  8
0
  0
POLYLINE
  5
3D
  8
0
 66
     1
 10
0.0
 20
0.0
 30
0.0
 70
     1
  0
VERTEX
  5
4F
  8
0
 10
0.0000000000000067
 20
26.55000000000001
 30
0.0
 42
0.4142135623730951
  0
VERTEX
  5
50
  8
0
 10
-1.549999999999993
 20
25.00000000000001
 30
0.0
 42
0.4142135623730951
  0
VERTEX
  5
51
  8
0
 10
0.0000000000000067
 20
23.45000000000001
 30
0.0
 42
0.4142135623730951
  0
VERTEX
  5
52
  8
0
 10
1.550000000000007
 20
25.00000000000001
 30
0.0
 42
0.4142135623730951
  0
SEQEND
  5
53
  8
0
  0
POLYLINE
  5
3E
  8
0
 66
     1
 10
0.0
 20
0.0
 30
0.0
 70
     1
  0
VERTEX
  5
54
  8
0
 10
21.65063509461099
 20
14.04999999999995
 30
0.0
 42
0.4142135623730951
  0
VERTEX
  5
55
  8
0
 10
20.10063509461099
 20
12.49999999999995
 30
0.0
 42
0.4142135623730951
  0
VERTEX
  5
56
  8
0
 10
21.65063509461099
 20
10.94999999999995
 30
0.0
 42
0.4142135623730951
  0
VERTEX
  5
57
  8
0
 10
23.20063509461099
 20
12.49999999999995
 30
0.0
 42
0.4142135623730951
  0
SEQEND
  5
58
  8
0
  0
POLYLINE
  5
3F
  8
0
 66
     1
 10
0.0
 20
0.0
 30
0.0
 70
     1
  0
VERTEX
  5
59
  8
0
 10
-21.65063509461109
 20
-10.94999999999981
 30
0.0
 42
0.4142135623730951
  0
VERTEX
  5
5A
  8
0
 10
-23.20063509461109
 20
-12.49999999999981
 30
0.0
 42
0.4142135623730951
  0
VERTEX
  5
5B
  8
0
 10
-21.65063509461109
 20
-14.04999999999981
 30
0.0
 42
0.4142135623730951
  0
VERTEX
  5
5C
  8
0
 10
-20.10063509461109
 20
-12.49999999999981
 30
0.0
 42
0.4142135623730951
  0
SEQEND
  5
5D
  8
0
  0
POLYLINE
  5
40
  8
0
 66
     1
 10
0.0
 20
0.0
 30
0.0
 70
     1
  0
VERTEX
  5
5E
  8
0
 10
21.65063509461093
 20
-10.95000000000011
 30
0.0
 42
0.4142135623730951
  0
VERTEX
  5
5F
  8
0
 10
20.10063509461093
 20
-12.50000000000011
 30
0.0
 42
0.4142135623730951
  0
VERTEX
  5
60
  8
0
 10
21.65063509461093
 20
-14.05000000000011
 30
0.0
 42
0.4142135623730951
  0
VERTEX
  5
61
  8
0
 10
23.20063509461093
 20
-12.50000000000011
 30
0.0
 42
0.4142135623730951
  0
SEQEND
  5
62
  8
0
  0
POLYLINE
  5
41
  8
0
 66
     1
 10
0.0
 20
0.0
 30
0.0
 70
     1
  0
VERTEX
  5
63
  8
0
 10
-0.0000000000000067
 20
-23.45000000000001
 30
0.0
 42
0.4142135623730951
  0
VERTEX
  5
64
  8
0
 10
-1.550000000000007
 20
-25.00000000000001
 30
0.0
 42
0.4142135623730951
  0
VERTEX
  5
65
  8
0
 10
-0.0000000000000067
 20
-26.55000000000001
 30
0.0
 42
0.4142135623730951
  0
VERTEX
  5
66
  8
0
 10
1.549999999999993
 20
-25.00000000000001
 30
0.0
 42
0.4142135623730951
  0
SEQEND
  5
67
  8
0
  0
POLYLINE
  5
42
  8
0
 66
     1
 10
0.0
 20
0.0
 30
0.0
 70
     1
  0
VERTEX
  5
68
  8
0
 10
0.0
 20
18.0
 30
0.0
 42
0.4142135623730951
  0
VERTEX
  5
69
  8
0
 10
-18.0
 20
0.0
 30
0.0
 42
0.4142135623730951
  0
VERTEX
  5
6A
  8
0
 10
0.0
 20
-18.0
 30
0.0
 42
0.4142135623730951
  0
VERTEX
  5
6B
  8
0
 10
18.0
 20
0.0
 30
0.0
 42
0.4142135623730951
  0
SEQEND
  5
6C
  8
0
  0
POLYLINE
  5
43
  8
0
 66
     1
 10
0.0
 20
0.0
 30
0.0
 70
     1
  0
VERTEX
  5
6D
  8
0
 10
0.0
 20
49.59428044280449
 30
0.0
 42
0.4142135623730951
  0
VERTEX
  5
6E
  8
0
 10
-1.55
 20
48.04428044280449
 30
0.0
 42
0.4142135623730951
  0
VERTEX
  5
6F
  8
0
 10
0.0
 20
46.49428044280448
 30
0.0
 42
0.4142135623730951
  0
VERTEX
  5
70
  8
0
 10
1.55
 20
48.04428044280449
 30
0.0
 42
0.4142135623730951
  0
SEQEND
  5
71
  8
0
  0
POLYLINE
  5
44
  8
0
 66
     1
 10
0.0
 20
0.0
 30
0.0
 70
     1
  0
VERTEX
  5
72
  8
0
 10
42.94990674587845
 20
-24.79714022140223
 30
0.0
 42
0.4142135623730951
  0
VERTEX
  5
73
  8
0
 10
42.38256737001257
 20
-22.67980084553635
 30
0.0
 42
0.4142135623730951
  0
VERTEX
  5
74
  8
0
 10
40.26522799414668
 20
-23.24714022140223
 30
0.0
 42
0.4142135623730951
  0
VERTEX
  5
75
  8
0
 10
40.83256737001257
 20
-25.36447959726811
 30
0.0
 42
0.4142135623730951
  0
SEQEND
  5
76
  8
0
  0
POLYLINE
  5
45
  8
0
 66
     1
 10
0.0
 20
0.0
 30
0.0
 70
     1
  0
VERTEX
  5
77
  8
0
 10
-42.94990674587843
 20
-24.79714022140227
 30
0.0
 42
0.4142135623730951
  0
VERTEX
  5
78
  8
0
 10
-40.83256737001255
 20
-25.36447959726814
 30
0.0
 42
0.4142135623730951
  0
VERTEX
  5
79
  8
0
 10
-40.26522799414667
 20
-23.24714022140226
 30
0.0
 42
0.4142135623730951
  0
VERTEX
  5
7A
  8
0
 10
-42.38256737001255
 20
-22.67980084553638
 30
0.0
 42
0.4142135623730951
  0
SEQEND
  5
7B
  8
0
  0
POLYLINE
  5
46
  8
0
 66
     1
 10
0.0
 20
0.0
 30
0.0
 70
     1
  0
VERTEX
  5
7C
  8
0
 10
-40.44585435732772
 20
-29.39761682987883
 30
0.0
  0
VERTEX
  5
7D
  8
0
 10
-40.00186708499199
 20
-29.99906597982504
 30
0.0
  0
VERTEX
  5
7E
  8
0
 10
-39.54972374032103
 20
-30.59280769318888
 30
0.0
  0
VERTEX
  5
7F
  8
0
 10
-39.08953021744168
 20
-31.17878551427055
 30
0.0
  0
VERTEX
  5
80
  8
0
 10
-38.62139241048075
 20
-31.75694298737027
 30
0.0
  0
VERTEX
  5
81
  8
0
 10
-38.14541621356508
 20
-32.32722365678821
 30
0.0
  0
VERTEX
  5
82
  8
0
 10
-37.66170752082148
 20
-32.88957106682459
 30
0.0
  0
VERTEX
  5
83
  8
0
 10
-37.17037222637678
 20
-33.44392876177962
 30
0.0
  0
VERTEX
  5
84
  8
0
 10
-36.6715162243578
 20
-33.99024028595348
 30
0.0
  0
VERTEX
  5
85
  8
0
 10
-36.16524540889137
 20
-34.52844918364639
 30
0.0
  0
VERTEX
  5
86
  8
0
 10
-35.65166567410429
 20
-35.05849899915854
 30
0.0
  0
VERTEX
  5
87
  8
0
 10
-35.13088291412342
 20
-35.58033327679014
 30
0.0
  0
VERTEX
  5
88
  8
0
 10
-34.60300302307554
 20
-36.0938955608414
 30
0.0
  0
VERTEX
  5
89
  8
0
 10
-34.06813189508752
 20
-36.59912939561251
 30
0.0
  0
VERTEX
  5
8A
  8
0
 10
-33.52637542428614
 20
-37.09597832540366
 30
0.0
  0
VERTEX
  5
8B
  8
0
 10
-32.97783950479825
 20
-37.58438589451509
 30
0.0
  0
VERTEX
  5
8C
  8
0
 10
-32.42263003075067
 20
-38.06429564724696
 30
0.0
  0
VERTEX
  5
8D
  8
0
 10
-31.86085289627021
 20
-38.5356511278995
 30
0.0
  0
VERTEX
  5
8E
  8
0
 10
-31.29261399548371
 20
-38.9983958807729
 30
0.0
  0
VERTEX
  5
8F
  8
0
 10
-30.71801922251798
 20
-39.45247345016737
 30
0.0
  0
VERTEX
  5
90
  8
0
 10
-30.13717447149985
 20
-39.89782738038311
 30
0.0
  0
VERTEX
  5
91
  8
0
 10
-29.55018563655614
 20
-40.33440121572031
 30
0.0
  0
VERTEX
  5
92
  8
0
 10
-28.95715861181368
 20
-40.76213850047918
 30
0.0
  0
VERTEX
  5
93
  8
0
 10
-28.35819929139928
 20
-41.18098277895992
 30
0.0
  0
VERTEX
  5
94
  8
0
 10
-27.75341356943978
 20
-41.59087759546274
 30
0.0
  0
VERTEX
  5
95
  8
0
 10
-27.14290734006198
 20
-41.99176649428784
 30
0.0
  0
VERTEX
  5
96
  8
0
 10
-26.52678649739273
 20
-42.38359301973542
 30
0.0
  0
VERTEX
  5
97
  8
0
 10
-25.90515693555884
 20
-42.76630071610568
 30
0.0
  0
VERTEX
  5
98
  8
0
 10
-25.27812454868712
 20
-43.13983312769882
 30
0.0
  0
VERTEX
  5
99
  8
0
 10
-24.64579523090442
 20
-43.50413379881505
 30
0.0
  0
VERTEX
  5
9A
  8
0
 10
-24.00827487633754
 20
-43.85914627375458
 30
0.0
  0
VERTEX
  5
9B
  8
0
 10
-23.36566937911333
 20
-44.20481409681758
 30
0.0
  0
VERTEX
  5
9C
  8
0
 10
-22.71808463335858
 20
-44.54108081230427
 30
0.0
  0
VERTEX
  5
9D
  8
0
 10
-22.06562653320014
 20
-44.86788996451486
 30
0.0
  0
VERTEX
  5
9E
  8
0
 10
-21.40840097276482
 20
-45.18518509774955
 30
0.0
  0
VERTEX
  5
9F
  8
0
 10
-20.74651384617944
 20
-45.49290975630853
 30
0.0
  0
VERTEX
  5
A0
  8
0
 10
-20.08007104757083
 20
-45.79100748449202
 30
0.0
  0
VERTEX
  5
A1
  8
0
 10
-19.40917847106581
 20
-46.07942182660021
 30
0.0
  0
VERTEX
  5
A2
  8
0
 10
-18.73394201079122
 20
-46.3580963269333
 30
0.0
  0
VERTEX
  5
A3
  8
0
 10
-18.05446756087385
 20
-46.6269745297915
 30
0.0
  0
VERTEX
  5
A4
  8
0
 10
-17.37086101544055
 20
-46.885999979475
 30
0.0
  0
VERTEX
  5
A5
  8
0
 10
-16.68322826861813
 20
-47.13511622028402
 30
0.0
  0
VERTEX
  5
A6
  8
0
 10
-15.99167521453342
 20
-47.37426679651875
 30
0.0
  0
VERTEX
  5
A7
  8
0
 10
-15.29630774731325
 20
-47.60339525247939
 30
0.0
  0
VERTEX
  5
A8
  8
0
 10
-14.59723176108442
 20
-47.82244513246615
 30
0.0
  0
VERTEX
  5
A9
  8
0
 10
-13.89455314997378
 20
-48.03135998077923
 30
0.0
  0
VERTEX
  5
AA
  8
0
 10
-13.18837780810813
 20
-48.23008334171882
 30
0.0
  0
VERTEX
  5
AB
  8
0
 10
-12.47881162961431
 20
-48.41855875958515
 30
0.0
  0
VERTEX
  5
AC
  8
0
 10
-11.76596050861913
 20
-48.59672977867839
 30
0.0
  0
VERTEX
  5
AD
  8
0
 10
-11.04993033924943
 20
-48.76453994329876
 30
0.0
  0
VERTEX
  5
AE
  8
0
 10
-10.33082701563202
 20
-48.92193279774645
 30
0.0
  0
VERTEX
  5
AF
  8
0
 10
-9.60875643189372
 20
-49.06885188632168
 30
0.0
  0
VERTEX
  5
B0
  8
0
 10
-8.883824482161362
 20
-49.20524075332465
 30
0.0
  0
VERTEX
  5
B1
  8
0
 10
-8.156137060561768
 20
-49.33104294305555
 30
0.0
  0
VERTEX
  5
B2
  8
0
 10
-7.425800061221761
 20
-49.44620199981459
 30
0.0
  0
VERTEX
  5
B3
  8
0
 10
-6.692919378268162
 20
-49.55066146790197
 30
0.0
  0
VERTEX
  5
B4
  8
0
 10
-5.957600905827794
 20
-49.64436489161788
 30
0.0
  0
VERTEX
  5
B5
  8
0
 10
-5.219950538027483
 20
-49.72725581526254
 30
0.0
  0
VERTEX
  5
B6
  8
0
 10
-4.48007416899405
 20
-49.79927778313615
 30
0.0
  0
VERTEX
  5
B7
  8
0
 10
-3.738077692854318
 20
-49.8603743395389
 30
0.0
  0
VERTEX
  5
B8
  8
0
 10
-2.994067003735111
 20
-49.910489028771
 30
0.0
  0
VERTEX
  5
B9
  8
0
 10
-2.248147995763251
 20
-49.94956539513266
 30
0.0
  0
VERTEX
  5
BA
  8
0
 10
-1.500426563065563
 20
-49.97754698292407
 30
0.0
  0
VERTEX
  5
BB
  8
0
 10
-0.7510085997688695
 20
-49.99437733644542
 30
0.0
  0
VERTEX
  5
BC
  8
0
 10
0.0000000000000071
 20
-49.99999999999695
 30
0.0
  0
VERTEX
  5
BD
  8
0
 10
0.756413901931844
 20
-49.99430700566519
 30
0.0
  0
VERTEX
  5
BE
  8
0
 10
1.511001695417989
 20
-49.97727014319526
 30
0.0
  0
VERTEX
  5
BF
  8
0
 10
2.263660582095703
 20
-49.94895259337516
 30
0.0
  0
VERTEX
  5
C0
  8
0
 10
3.014287763602248
 20
-49.90941753699296
 30
0.0
  0
VERTEX
  5
C1
  8
0
 10
3.762780441574885
 20
-49.85872815483667
 30
0.0
  0
VERTEX
  5
C2
  8
0
 10
4.509035817650876
 20
-49.79694762769432
 30
0.0
  0
VERTEX
  5
C3
  8
0
 10
5.252951093467482
 20
-49.72413913635394
 30
0.0
  0
VERTEX
  5
C4
  8
0
 10
5.994423470661963
 20
-49.64036586160357
 30
0.0
  0
VERTEX
  5
C5
  8
0
 10
6.733350150871583
 20
-49.54569098423123
 30
0.0
  0
VERTEX
  5
C6
  8
0
 10
7.469628335733602
 20
-49.44017768502495
 30
0.0
  0
VERTEX
  5
C7
  8
0
 10
8.203155226885283
 20
-49.32388914477276
 30
0.0
  0
VERTEX
  5
C8
  8
0
 10
8.933828025963884
 20
-49.19688854426271
 30
0.0
  0
VERTEX
  5
C9
  8
0
 10
9.66154393460667
 20
-49.0592390642828
 30
0.0
  0
VERTEX
  5
CA
  8
0
 10
10.3862001544509
 20
-48.91100388562108
 30
0.0
  0
VERTEX
  5
CB
  8
0
 10
11.10769388713384
 20
-48.75224618906557
 30
0.0
  0
VERTEX
  5
CC
  8
0
 10
11.82592233429274
 20
-48.5830291554043
 30
0.0
  0
VERTEX
  5
CD
  8
0
 10
12.54078269756488
 20
-48.4034159654253
 30
0.0
  0
VERTEX
  5
CE
  8
0
 10
13.2521721785875
 20
-48.21346979991661
 30
0.0
  0
VERTEX
  5
CF
  8
0
 10
13.95998797899788
 20
-48.01325383966626
 30
0.0
  0
VERTEX
  5
D0
  8
0
 10
14.66412730043327
 20
-47.80283126546226
 30
0.0
  0
VERTEX
  5
D1
  8
0
 10
15.36448734453094
 20
-47.58226525809266
 30
0.0
  0
VERTEX
  5
D2
  8
0
 10
16.06096531292814
 20
-47.35161899834549
 30
0.0
  0
VERTEX
  5
D3
  8
0
 10
16.75345840726214
 20
-47.11095566700877
 30
0.0
  0
VERTEX
  5
D4
  8
0
 10
17.4418638291702
 20
-46.86033844487054
 30
0.0
  0
VERTEX
  5
D5
  8
0
 10
18.12607878028957
 20
-46.59983051271881
 30
0.0
  0
VERTEX
  5
D6
  8
0
 10
18.80600046225754
 20
-46.32949505134162
 30
0.0
  0
VERTEX
  5
D7
  8
0
 10
19.48152607671134
 20
-46.04939524152702
 30
0.0
  0
VERTEX
  5
D8
  8
0
 10
20.15255282528825
 20
-45.75959426406302
 30
0.0
  0
VERTEX
  5
D9
  8
0
 10
20.81897790962553
 20
-45.46015529973764
 30
0.0
  0
VERTEX
  5
DA
  8
0
 10
21.48069853136043
 20
-45.15114152933894
 30
0.0
  0
VERTEX
  5
DB
  8
0
 10
22.13761189213022
 20
-44.83261613365492
 30
0.0
  0
VERTEX
  5
DC
  8
0
 10
22.78961519357217
 20
-44.50464229347364
 30
0.0
  0
VERTEX
  5
DD
  8
0
 10
23.43660563732352
 20
-44.1672831895831
 30
0.0
  0
VERTEX
  5
DE
  8
0
 10
24.07848042502155
 20
-43.82060200277135
 30
0.0
  0
VERTEX
  5
DF
  8
0
 10
24.71513675830352
 20
-43.46466191382642
 30
0.0
  0
VERTEX
  5
E0
  8
0
 10
25.34647183880668
 20
-43.09952610353632
 30
0.0
  0
VERTEX
  5
E1
  8
0
 10
25.9723828681683
 20
-42.7252577526891
 30
0.0
  0
VERTEX
  5
E2
  8
0
 10
26.59276704802564
 20
-42.34192004207279
 30
0.0
  0
VERTEX
  5
E3
  8
0
 10
27.20752158001595
 20
-41.9495761524754
 30
0.0
  0
VERTEX
  5
E4
  8
0
 10
27.81654366577651
 20
-41.54828926468499
 30
0.0
  0
VERTEX
  5
E5
  8
0
 10
28.41973050694458
 20
-41.13812255948957
 30
0.0
  0
VERTEX
  5
E6
  8
0
 10
29.01697930515741
 20
-40.71913921767717
 30
0.0
  0
VERTEX
  5
E7
  8
0
 10
29.60818726205226
 20
-40.29140242003582
 30
0.0
  0
VERTEX
  5
E8
  8
0
 10
30.1932515792664
 20
-39.85497534735356
 30
0.0
  0
VERTEX
  5
E9
  8
0
 10
30.77206945843709
 20
-39.40992118041841
 30
0.0
  0
VERTEX
  5
EA
  8
0
 10
31.3445381012016
 20
-38.9563031000184
 30
0.0
  0
VERTEX
  5
EB
  8
0
 10
31.91055470919717
 20
-38.49418428694158
 30
0.0
  0
VERTEX
  5
EC
  8
0
 10
32.47001648406108
 20
-38.02362792197595
 30
0.0
  0
VERTEX
  5
ED
  8
0
 10
33.02282062743058
 20
-37.54469718590957
 30
0.0
  0
VERTEX
  5
EE
  8
0
 10
33.56886434094294
 20
-37.05745525953044
 30
0.0
  0
VERTEX
  5
EF
  8
0
 10
34.10804482623541
 20
-36.56196532362661
 30
0.0
  0
VERTEX
  5
F0
  8
0
 10
34.64025928494527
 20
-36.0582905589861
 30
0.0
  0
VERTEX
  5
F1
  8
0
 10
35.16540491870976
 20
-35.54649414639695
 30
0.0
  0
VERTEX
  5
F2
  8
0
 10
35.68337892916616
 20
-35.02663926664718
 30
0.0
  0
VERTEX
  5
F3
  8
0
 10
36.19407851795172
 20
-34.49878910052482
 30
0.0
  0
VERTEX
  5
F4
  8
0
 10
36.6974008867037
 20
-33.96300682881791
 30
0.0
  0
VERTEX
  5
F5
  8
0
 10
37.19324323705938
 20
-33.41935563231448
 30
0.0
  0
VERTEX
  5
F6
  8
0
 10
37.681502770656
 20
-32.86789869180255
 30
0.0
  0
VERTEX
  5
F7
  8
0
 10
38.16207668913083
 20
-32.30869918807015
 30
0.0
  0
VERTEX
  5
F8
  8
0
 10
38.63486219412113
 20
-31.74182030190532
 30
0.0
  0
VERTEX
  5
F9
  8
0
 10
39.09975648726415
 20
-31.16732521409608
 30
0.0
  0
VERTEX
  5
FA
  8
0
 10
39.55665677019718
 20
-30.58527710543047
 30
0.0
  0
VERTEX
  5
FB
  8
0
 10
40.00546024455745
 20
-29.99573915669651
 30
0.0
  0
VERTEX
  5
FC
  8
0
 10
40.44606411198225
 20
-29.39877454868224
 30
0.0
  0
VERTEX
  5
FD
  8
0
 10
40.65957656312368
 20
-29.44058742364209
 30
0.0
  0
VERTEX
  5
FE
  8
0
 10
40.87373801420602
 20
-29.47374134337488
 30
0.0
  0
VERTEX
  5
FF
  8
0
 10
41.08830055002194
 20
-29.49830287954724
 30
0.0
  0
VERTEX
  5
100
  8
0
 10
41.30301625536411
 20
-29.51433860382586
 30
0.0
  0
VERTEX
  5
101
  8
0
 10
41.5176372150252
 20
-29.52191508787738
 30
0.0
  0
VERTEX
  5
102
  8
0
 10
41.73191551379788
 20
-29.52109890336847
 30
0.0
  0
VERTEX
  5
103
  8
0
 10
41.9456032364748
 20
-29.51195662196578
 30
0.0
  0
VERTEX
  5
104
  8
0
 10
42.15845246784863
 20
-29.49455481533599
 30
0.0
  0
VERTEX
  5
105
  8
0
 10
42.37021529271203
 20
-29.46896005514574
 30
0.0
  0
VERTEX
  5
106
  8
0
 10
42.5806437958577
 20
-29.43523891306169
 30
0.0
  0
VERTEX
  5
107
  8
0
 10
42.78949006207827
 20
-29.39345796075051
 30
0.0
  0
VERTEX
  5
108
  8
0
 10
42.99650617616643
 20
-29.34368376987885
 30
0.0
  0
VERTEX
  5
109
  8
0
 10
43.20144422291483
 20
-29.28598291211339
 30
0.0
  0
VERTEX
  5
10A
  8
0
 10
43.40405628711613
 20
-29.22042195912076
 30
0.0
  0
VERTEX
  5
10B
  8
0
 10
43.60409445356302
 20
-29.14706748256764
 30
0.0
  0
VERTEX
  5
10C
  8
0
 10
43.80131080704815
 20
-29.06598605412069
 30
0.0
  0
VERTEX
  5
10D
  8
0
 10
43.9954574323642
 20
-28.97724424544656
 30
0.0
  0
VERTEX
  5
10E
  8
0
 10
44.18628641430381
 20
-28.88090862821192
 30
0.0
  0
VERTEX
  5
10F
  8
0
 10
44.37354983765967
 20
-28.77704577408342
 30
0.0
  0
VERTEX
  5
110
  8
0
 10
44.55699978722443
 20
-28.66572225472772
 30
0.0
  0
VERTEX
  5
111
  8
0
 10
44.73638834779078
 20
-28.54700464181148
 30
0.0
  0
VERTEX
  5
112
  8
0
 10
44.91146760415135
 20
-28.42095950700137
 30
0.0
  0
VERTEX
  5
113
  8
0
 10
45.08198964109884
 20
-28.28765342196405
 30
0.0
  0
VERTEX
  5
114
  8
0
 10
45.24770654342591
 20
-28.14715295836617
 30
0.0
  0
VERTEX
  5
115
  8
0
 10
45.4083703959252
 20
-27.99952468787438
 30
0.0
  0
VERTEX
  5
116
  8
0
 10
45.56373328338942
 20
-27.84483518215537
 30
0.0
  0
VERTEX
  5
117
  8
0
 10
45.7135472906112
 20
-27.68315101287578
 30
0.0
  0
VERTEX
  5
118
  8
0
 10
45.85756450238321
 20
-27.51453875170226
 30
0.0
  0
VERTEX
  5
119
  8
0
 10
45.99553700349814
 20
-27.33906497030149
 30
0.0
  0
VERTEX
  5
11A
  8
0
 10
46.12721687874863
 20
-27.15679624034012
 30
0.0
  0
VERTEX
  5
11B
  8
0
 10
46.25235621292735
 20
-26.96779913348482
 30
0.0
  0
VERTEX
  5
11C
  8
0
 10
46.37070709082698
 20
-26.77214022140224
 30
0.0
  0
VERTEX
  5
11D
  8
0
 10
46.48100063663772
 20
-26.57177125829703
 30
0.0
  0
VERTEX
  5
11E
  8
0
 10
46.58212663381225
 20
-26.36885313378017
 30
0.0
  0
VERTEX
  5
11F
  8
0
 10
46.67415144619331
 20
-26.16363398420102
 30
0.0
  0
VERTEX
  5
120
  8
0
 10
46.75714143762361
 20
-25.9563619459089
 30
0.0
  0
VERTEX
  5
121
  8
0
 10
46.83116297194586
 20
-25.74728515525316
 30
0.0
  0
VERTEX
  5
122
  8
0
 10
46.89628241300278
 20
-25.53665174858314
 30
0.0
  0
VERTEX
  5
123
  8
0
 10
46.95256612463709
 20
-25.32470986224817
 30
0.0
  0
VERTEX
  5
124
  8
0
 10
47.00008047069151
 20
-25.1117076325976
 30
0.0
  0
VERTEX
  5
125
  8
0
 10
47.03889181500874
 20
-24.89789319598077
 30
0.0
  0
VERTEX
  5
126
  8
0
 10
47.06906652143151
 20
-24.68351468874702
 30
0.0
  0
VERTEX
  5
127
  8
0
 10
47.09067095380254
 20
-24.46882024724569
 30
0.0
  0
VERTEX
  5
128
  8
0
 10
47.10377147596454
 20
-24.25405800782611
 30
0.0
  0
VERTEX
  5
129
  8
0
 10
47.10843445176022
 20
-24.03947610683763
 30
0.0
  0
VERTEX
  5
12A
  8
0
 10
47.10472624503231
 20
-23.8253226806296
 30
0.0
  0
VERTEX
  5
12B
  8
0
 10
47.09271321962352
 20
-23.61184586555134
 30
0.0
  0
VERTEX
  5
12C
  8
0
 10
47.07246173937656
 20
-23.3992937979522
 30
0.0
  0
VERTEX
  5
12D
  8
0
 10
47.04403816813415
 20
-23.18791461418152
 30
0.0
  0
VERTEX
  5
12E
  8
0
 10
47.00750886973901
 20
-22.97795645058864
 30
0.0
  0
VERTEX
  5
12F
  8
0
 10
46.96294020803387
 20
-22.76966744352289
 30
0.0
  0
VERTEX
  5
130
  8
0
 10
46.91039854686142
 20
-22.56329572933362
 30
0.0
  0
VERTEX
  5
131
  8
0
 10
46.84995025006438
 20
-22.35908944437018
 30
0.0
  0
VERTEX
  5
132
  8
0
 10
46.78166168148549
 20
-22.1572967249819
 30
0.0
  0
VERTEX
  5
133
  8
0
 10
46.70559920496744
 20
-21.95816570751811
 30
0.0
  0
VERTEX
  5
134
  8
0
 10
46.62182918435296
 20
-21.76194452832816
 30
0.0
  0
VERTEX
  5
135
  8
0
 10
46.53041798348476
 20
-21.5688813237614
 30
0.0
  0
VERTEX
  5
136
  8
0
 10
46.43143196620557
 20
-21.37922423016715
 30
0.0
  0
VERTEX
  5
137
  8
0
 10
46.32493749635809
 20
-21.19322138389477
 30
0.0
  0
VERTEX
  5
138
  8
0
 10
46.21100093778504
 20
-21.01112092129359
 30
0.0
  0
VERTEX
  5
139
  8
0
 10
46.08968865432915
 20
-20.83317097871294
 30
0.0
  0
VERTEX
  5
13A
  8
0
 10
45.96106700983313
 20
-20.65961969250218
 30
0.0
  0
VERTEX
  5
13B
  8
0
 10
45.82520236813968
 20
-20.49071519901064
 30
0.0
  0
VERTEX
  5
13C
  8
0
 10
45.68216109309153
 20
-20.32670563458765
 30
0.0
  0
VERTEX
  5
13D
  8
0
 10
45.94466472380037
 20
-19.72613445811156
 30
0.0
  0
VERTEX
  5
13E
  8
0
 10
46.19913429359674
 20
-19.12250996770958
 30
0.0
  0
VERTEX
  5
13F
  8
0
 10
46.44555016879853
 20
-18.51591402138974
 30
0.0
  0
VERTEX
  5
140
  8
0
 10
46.68389271572367
 20
-17.90642847716009
 30
0.0
  0
VERTEX
  5
141
  8
0
 10
46.91414230069004
 20
-17.29413519302868
 30
0.0
  0
VERTEX
  5
142
  8
0
 10
47.13627929001557
 20
-16.67911602700354
 30
0.0
  0
VERTEX
  5
143
  8
0
 10
47.35028405001815
 20
-16.06145283709272
 30
0.0
  0
VERTEX
  5
144
  8
0
 10
47.55613694701568
 20
-15.44122748130426
 30
0.0
  0
VERTEX
  5
145
  8
0
 10
47.75381834732608
 20
-14.81852181764619
 30
0.0
  0
VERTEX
  5
146
  8
0
 10
47.94330861726726
 20
-14.19341770412657
 30
0.0
  0
VERTEX
  5
147
  8
0
 10
48.12458812315712
 20
-13.56599699875343
 30
0.0
  0
VERTEX
  5
148
  8
0
 10
48.29763723131356
 20
-12.93634155953481
 30
0.0
  0
VERTEX
  5
149
  8
0
 10
48.46243630805449
 20
-12.30453324447876
 30
0.0
  0
VERTEX
  5
14A
  8
0
 10
48.61896571969781
 20
-11.67065391159332
 30
0.0
  0
VERTEX
  5
14B
  8
0
 10
48.76720583256144
 20
-11.03478541888653
 30
0.0
  0
VERTEX
  5
14C
  8
0
 10
48.90713701296328
 20
-10.39700962436643
 30
0.0
  0
VERTEX
  5
14D
  8
0
 10
49.03873962722123
 20
-9.757408386041064
 30
0.0
  0
VERTEX
  5
14E
  8
0
 10
49.16199404165319
 20
-9.11606356191847
 30
0.0
  0
VERTEX
  5
14F
  8
0
 10
49.27688062257709
 20
-8.473057010006695
 30
0.0
  0
VERTEX
  5
150
  8
0
 10
49.38337973631081
 20
-7.82847058831378
 30
0.0
  0
VERTEX
  5
151
  8
0
 10
49.48147174917227
 20
-7.182386154847764
 30
0.0
  0
VERTEX
  5
152
  8
0
 10
49.57113702747937
 20
-6.534885567616691
 30
0.0
  0
VERTEX
  5
153
  8
0
 10
49.65235593755001
 20
-5.8860506846286
 30
0.0
  0
VERTEX
  5
154
  8
0
 10
49.72510884570212
 20
-5.235963363891537
 30
0.0
  0
VERTEX
  5
155
  8
0
 10
49.78937611825359
 20
-4.58470546341354
 30
0.0
  0
VERTEX
  5
156
  8
0
 10
49.84513812152231
 20
-3.932358841202653
 30
0.0
  0
VERTEX
  5
157
  8
0
 10
49.89237522182621
 20
-3.279005355266916
 30
0.0
  0
VERTEX
  5
158
  8
0
 10
49.93106778548319
 20
-2.624726863614371
 30
0.0
  0
VERTEX
  5
159
  8
0
 10
49.96119617881115
 20
-1.969605224253061
 30
0.0
  0
VERTEX
  5
15A
  8
0
 10
49.982740768128
 20
-1.313722295191026
 30
0.0
  0
VERTEX
  5
15B
  8
0
 10
49.99568191975165
 20
-0.6571599344363093
 30
0.0
  0
VERTEX
  5
15C
  8
0
 10
50.00000000000001
 20
0.0000000000030482
 30
0.0
  0
VERTEX
  5
15D
  8
0
 10
49.98580793982665
 20
1.201479988190971
 30
0.0
  0
VERTEX
  5
15E
  8
0
 10
49.94343897607297
 20
2.396296487189033
 30
0.0
  0
VERTEX
  5
15F
  8
0
 10
49.8732039338886
 20
3.584119836536839
 30
0.0
  0
VERTEX
  5
160
  8
0
 10
49.77541363842317
 20
4.764620375773995
 30
0.0
  0
VERTEX
  5
161
  8
0
 10
49.65037891482631
 20
5.937468444440103
 30
0.0
  0
VERTEX
  5
162
  8
0
 10
49.49841058824762
 20
7.102334382074771
 30
0.0
  0
VERTEX
  5
163
  8
0
 10
49.31981948383674
 20
8.258888528217598
 30
0.0
  0
VERTEX
  5
164
  8
0
 10
49.11491642674329
 20
9.406801222408193
 30
0.0
  0
VERTEX
  5
165
  8
0
 10
48.88401224211691
 20
10.54574280418616
 30
0.0
  0
VERTEX
  5
166
  8
0
 10
48.6274177551072
 20
11.6753836130911
 30
0.0
  0
VERTEX
  5
167
  8
0
 10
48.3454437908638
 20
12.79539398866262
 30
0.0
  0
VERTEX
  5
168
  8
0
 10
48.03840117453633
 20
13.90544427044032
 30
0.0
  0
VERTEX
  5
169
  8
0
 10
47.70660073127441
 20
15.00520479796381
 30
0.0
  0
VERTEX
  5
16A
  8
0
 10
47.35035328622768
 20
16.0943459107727
 30
0.0
  0
VERTEX
  5
16B
  8
0
 10
46.96996966454574
 20
17.17253794840657
 30
0.0
  0
VERTEX
  5
16C
  8
0
 10
46.56576069137824
 20
18.23945125040505
 30
0.0
  0
VERTEX
  5
16D
  8
0
 10
46.13803719187479
 20
19.29475615630774
 30
0.0
  0
VERTEX
  5
16E
  8
0
 10
45.68710999118502
 20
20.33812300565424
 30
0.0
  0
VERTEX
  5
16F
  8
0
 10
45.21328991445854
 20
21.36922213798415
 30
0.0
  0
VERTEX
  5
170
  8
0
 10
44.71688778684499
 20
22.38772389283708
 30
0.0
  0
VERTEX
  5
171
  8
0
 10
44.19821443349399
 20
23.39329860975263
 30
0.0
  0
VERTEX
  5
172
  8
0
 10
43.65758067955517
 20
24.38561662827041
 30
0.0
  0
VERTEX
  5
173
  8
0
 10
43.09529735017814
 20
25.36434828793002
 30
0.0
  0
VERTEX
  5
174
  8
0
 10
42.51167527051254
 20
26.32916392827107
 30
0.0
  0
VERTEX
  5
175
  8
0
 10
41.90702526570799
 20
27.27973388883316
 30
0.0
  0
VERTEX
  5
176
  8
0
 10
41.28165816091411
 20
28.21572850915589
 30
0.0
  0
VERTEX
  5
177
  8
0
 10
40.63588478128052
 20
29.13681812877887
 30
0.0
  0
VERTEX
  5
178
  8
0
 10
39.97001595195685
 20
30.04267308724171
 30
0.0
  0
VERTEX
  5
179
  8
0
 10
39.28436249809273
 20
30.932963724084
 30
0.0
  0
VERTEX
  5
17A
  8
0
 10
38.57923524483778
 20
31.80736037884536
 30
0.0
  0
VERTEX
  5
17B
  8
0
 10
37.85494501734162
 20
32.66553339106538
 30
0.0
  0
VERTEX
  5
17C
  8
0
 10
37.11180264075388
 20
33.50715310028367
 30
0.0
  0
VERTEX
  5
17D
  8
0
 10
36.35011894022418
 20
34.33188984603984
 30
0.0
  0
VERTEX
  5
17E
  8
0
 10
35.57020474090215
 20
35.13941396787349
 30
0.0
  0
VERTEX
  5
17F
  8
0
 10
34.7723708679374
 20
35.92939580532422
 30
0.0
  0
VERTEX
  5
180
  8
0
 10
33.95692814647958
 20
36.70150569793164
 30
0.0
  0
VERTEX
  5
181
  8
0
 10
33.1241874016783
 20
37.45541398523536
 30
0.0
  0
VERTEX
  5
182
  8
0
 10
32.27445945868318
 20
38.19079100677497
 30
0.0
  0
VERTEX
  5
183
  8
0
 10
31.40805514264385
 20
38.90730710209009
 30
0.0
  0
VERTEX
  5
184
  8
0
 10
30.52528527870993
 20
39.6046326107203
 30
0.0
  0
VERTEX
  5
185
  8
0
 10
29.62646069203105
 20
40.28243787220524
 30
0.0
  0
VERTEX
  5
186
  8
0
 10
28.71189220775683
 20
40.94039322608448
 30
0.0
  0
VERTEX
  5
187
  8
0
 10
27.78189065103689
 20
41.57816901189764
 30
0.0
  0
VERTEX
  5
188
  8
0
 10
26.83676684702087
 20
42.19543556918433
 30
0.0
  0
VERTEX
  5
189
  8
0
 10
25.87683162085838
 20
42.79186323748414
 30
0.0
  0
VERTEX
  5
18A
  8
0
 10
24.90239579769905
 20
43.36712235633668
 30
0.0
  0
VERTEX
  5
18B
  8
0
 10
23.9137702026925
 20
43.92088326528156
 30
0.0
  0
VERTEX
  5
18C
  8
0
 10
22.91126566098837
 20
44.45281630385838
 30
0.0
  0
VERTEX
  5
18D
  8
0
 10
21.89519299773626
 20
44.96259181160676
 30
0.0
  0
VERTEX
  5
18E
  8
0
 10
20.86586303808581
 20
45.44988012806627
 30
0.0
  0
VERTEX
  5
18F
  8
0
 10
19.82358660718665
 20
45.91435159277653
 30
0.0
  0
VERTEX
  5
190
  8
0
 10
18.76867453018838
 20
46.35567654527716
 30
0.0
  0
VERTEX
  5
191
  8
0
 10
17.70143763224065
 20
46.77352532510776
 30
0.0
  0
VERTEX
  5
192
  8
0
 10
16.62218673849307
 20
47.16756827180792
 30
0.0
  0
VERTEX
  5
193
  8
0
 10
15.53123267409527
 20
47.53747572491724
 30
0.0
  0
VERTEX
  5
194
  8
0
 10
14.42888626419688
 20
47.88291802397535
 30
0.0
  0
VERTEX
  5
195
  8
0
 10
13.31545833394751
 20
48.20356550852183
 30
0.0
  0
VERTEX
  5
196
  8
0
 10
12.19125970849679
 20
48.49908851809631
 30
0.0
  0
VERTEX
  5
197
  8
0
 10
11.05660121299435
 20
48.76915739223837
 30
0.0
  0
VERTEX
  5
198
  8
0
 10
9.911793672589809
 20
49.01344247048762
 30
0.0
  0
VERTEX
  5
199
  8
0
 10
8.757147912432794
 20
49.23161409238368
 30
0.0
  0
VERTEX
  5
19A
  8
0
 10
7.592974757672928
 20
49.42334259746613
 30
0.0
  0
VERTEX
  5
19B
  8
0
 10
6.419585033459835
 20
49.58829832527459
 30
0.0
  0
VERTEX
  5
19C
  8
0
 10
5.237289564943142
 20
49.72615161534866
 30
0.0
  0
VERTEX
  5
19D
  8
0
 10
5.166754783613435
 20
49.93199150387024
 30
0.0
  0
VERTEX
  5
19E
  8
0
 10
5.088395109974737
 20
50.13406388231955
 30
0.0
  0
VERTEX
  5
19F
  8
0
 10
5.002392191209078
 20
50.33218728646082
 30
0.0
  0
VERTEX
  5
1A0
  8
0
 10
4.908927674498488
 20
50.52618025205827
 30
0.0
  0
VERTEX
  5
1A1
  8
0
 10
4.808183207024997
 20
50.71586131487616
 30
0.0
  0
VERTEX
  5
1A2
  8
0
 10
4.700340435970632
 20
50.90104901067872
 30
0.0
  0
VERTEX
  5
1A3
  8
0
 10
4.585581008517424
 20
51.08156187523018
 30
0.0
  0
VERTEX
  5
1A4
  8
0
 10
4.464086571847403
 20
51.25721844429478
 30
0.0
  0
VERTEX
  5
1A5
  8
0
 10
4.336038773142599
 20
51.42783725363677
 30
0.0
  0
VERTEX
  5
1A6
  8
0
 10
4.201619259585041
 20
51.59323683902035
 30
0.0
  0
VERTEX
  5
1A7
  8
0
 10
4.061009678356758
 20
51.7532357362098
 30
0.0
  0
VERTEX
  5
1A8
  8
0
 10
3.914391676639781
 20
51.90765248096934
 30
0.0
  0
VERTEX
  5
1A9
  8
0
 10
3.761946901616139
 20
52.05630560906322
 30
0.0
  0
VERTEX
  5
1AA
  8
0
 10
3.603857000467862
 20
52.19901365625564
 30
0.0
  0
VERTEX
  5
1AB
  8
0
 10
3.440303620376978
 20
52.33559515831087
 30
0.0
  0
VERTEX
  5
1AC
  8
0
 10
3.271468408525519
 20
52.46586865099314
 30
0.0
  0
VERTEX
  5
1AD
  8
0
 10
3.097533012095513
 20
52.5896526700667
 30
0.0
  0
VERTEX
  5
1AE
  8
0
 10
2.918679078268991
 20
52.70676575129576
 30
0.0
  0
VERTEX
  5
1AF
  8
0
 10
2.735088254227981
 20
52.81702643044459
 30
0.0
  0
VERTEX
  5
1B0
  8
0
 10
2.546942187154514
 20
52.92025324327739
 30
0.0
  0
VERTEX
  5
1B1
  8
0
 10
2.354422524230619
 20
53.01626472555841
 30
0.0
  0
VERTEX
  5
1B2
  8
0
 10
2.157710912638326
 20
53.1048794130519
 30
0.0
  0
VERTEX
  5
1B3
  8
0
 10
1.956988999559663
 20
53.1859158415221
 30
0.0
  0
VERTEX
  5
1B4
  8
0
 10
1.752438432176662
 20
53.25919254673323
 30
0.0
  0
VERTEX
  5
1B5
  8
0
 10
1.544240857671351
 20
53.32452806444954
 30
0.0
  0
VERTEX
  5
1B6
  8
0
 10
1.33257792322576
 20
53.38174093043526
 30
0.0
  0
VERTEX
  5
1B7
  8
0
 10
1.117631276021919
 20
53.43064968045462
 30
0.0
  0
VERTEX
  5
1B8
  8
0
 10
0.8995825632418581
 20
53.47107285027187
 30
0.0
  0
VERTEX
  5
1B9
  8
0
 10
0.6786134320676059
 20
53.50282897565125
 30
0.0
  0
VERTEX
  5
1BA
  8
0
 10
0.4549055296811924
 20
53.52573659235698
 30
0.0
  0
VERTEX
  5
1BB
  8
0
 10
0.2286405032646472
 20
53.53961423615332
 30
0.0
  0
VERTEX
  5
1BC
  8
0
 10
0.0
 20
53.54428044280449
 30
0.0
  0
VERTEX
  5
1BD
  8
0
 10
-0.2285265330539772
 20
53.53961889529879
 30
0.0
  0
VERTEX
  5
1BE
  8
0
 10
-0.4546800561516539
 20
53.52575504681205
 30
0.0
  0
VERTEX
  5
1BF
  8
0
 10
-0.6782791913303512
 20
53.5028700883899
 30
0.0
  0
VERTEX
  5
1C0
  8
0
 10
-0.8991425606273902
 20
53.47114521107795
 30
0.0
  0
VERTEX
  5
1C1
  8
0
 10
-1.117088786080092
 20
53.43076160592179
 30
0.0
  0
VERTEX
  5
1C2
  8
0
 10
-1.331936489725777
 20
53.38190046396706
 30
0.0
  0
VERTEX
  5
1C3
  8
0
 10
-1.543504293601766
 20
53.32474297625933
 30
0.0
  0
VERTEX
  5
1C4
  8
0
 10
-1.751610819745381
 20
53.25947033384423
 30
0.0
  0
VERTEX
  5
1C5
  8
0
 10
-1.956074690193943
 20
53.18626372776738
 30
0.0
  0
VERTEX
  5
1C6
  8
0
 10
-2.156714526984772
 20
53.10530434907435
 30
0.0
  0
VERTEX
  5
1C7
  8
0
 10
-2.35334895215519
 20
53.01677338881078
 30
0.0
  0
VERTEX
  5
1C8
  8
0
 10
-2.545796587742517
 20
52.92085203802226
 30
0.0
  0
VERTEX
  5
1C9
  8
0
 10
-2.733876055784075
 20
52.81772148775441
 30
0.0
  0
VERTEX
  5
1CA
  8
0
 10
-2.917405978317183
 20
52.70756292905283
 30
0.0
  0
VERTEX
  5
1CB
  8
0
 10
-3.096204977379165
 20
52.59055755296313
 30
0.0
  0
VERTEX
  5
1CC
  8
0
 10
-3.27009167500734
 20
52.46688655053092
 30
0.0
  0
VERTEX
  5
1CD
  8
0
 10
-3.438884693239029
 20
52.3367311128018
 30
0.0
  0
VERTEX
  5
1CE
  8
0
 10
-3.602402654111554
 20
52.20027243082139
 30
0.0
  0
VERTEX
  5
1CF
  8
0
 10
-3.760464179662235
 20
52.0576916956353
 30
0.0
  0
VERTEX
  5
1D0
  8
0
 10
-3.912887891928393
 20
51.90917009828911
 30
0.0
  0
VERTEX
  5
1D1
  8
0
 10
-4.05949241294735
 20
51.75488882982846
 30
0.0
  0
VERTEX
  5
1D2
  8
0
 10
-4.200096364756425
 20
51.59502908129893
 30
0.0
  0
VERTEX
  5
1D3
  8
0
 10
-4.334518369392942
 20
51.42977204374615
 30
0.0
  0
VERTEX
  5
1D4
  8
0
 10
-4.46257704889422
 20
51.25929890821572
 30
0.0
  0
VERTEX
  5
1D5
  8
0
 10
-4.58409102529758
 20
51.08379086575325
 30
0.0
  0
VERTEX
  5
1D6
  8
0
 10
-4.698878920640342
 20
50.90342910740434
 30
0.0
  0
VERTEX
  5
1D7
  8
0
 10
-4.806759356959829
 20
50.71839482421461
 30
0.0
  0
VERTEX
  5
1D8
  8
0
 10
-4.907550956293361
 20
50.52886920722965
 30
0.0
  0
VERTEX
  5
1D9
  8
0
 10
-5.001072340678261
 20
50.33503344749509
 30
0.0
  0
VERTEX
  5
1DA
  8
0
 10
-5.087142132151847
 20
50.13706873605652
 30
0.0
  0
VERTEX
  5
1DB
  8
0
 10
-5.165578952751441
 20
49.93515626395956
 30
0.0
  0
VERTEX
  5
1DC
  8
0
 10
-5.236201424514364
 20
49.72947722224981
 30
0.0
  0
VERTEX
  5
1DD
  8
0
 10
-6.41113129872743
 20
49.59317444951733
 30
0.0
  0
VERTEX
  5
1DE
  8
0
 10
-7.577620967678159
 20
49.42987694173102
 30
0.0
  0
VERTEX
  5
1DF
  8
0
 10
-8.735348420528293
 20
49.23990668636449
 30
0.0
  0
VERTEX
  5
1E0
  8
0
 10
-9.883991646439569
 20
49.02358567089138
 30
0.0
  0
VERTEX
  5
1E1
  8
0
 10
-11.02322863457373
 20
48.7812358827853
 30
0.0
  0
VERTEX
  5
1E2
  8
0
 10
-12.15273737409251
 20
48.51317930951988
 30
0.0
  0
VERTEX
  5
1E3
  8
0
 10
-13.27219585415766
 20
48.21973793856877
 30
0.0
  0
VERTEX
  5
1E4
  8
0
 10
-14.38128206393091
 20
47.90123375740556
 30
0.0
  0
VERTEX
  5
1E5
  8
0
 10
-15.479673992574
 20
47.55798875350391
 30
0.0
  0
VERTEX
  5
1E6
  8
0
 10
-16.56704962924866
 20
47.19032491433742
 30
0.0
  0
VERTEX
  5
1E7
  8
0
 10
-17.64308696311666
 20
46.79856422737973
 30
0.0
  0
VERTEX
  5
1E8
  8
0
 10
-18.70746398333971
 20
46.38302868010446
 30
0.0
  0
VERTEX
  5
1E9
  8
0
 10
-19.75985867907956
 20
45.94404025998524
 30
0.0
  0
VERTEX
  5
1EA
  8
0
 10
-20.79994903949795
 20
45.4819209544957
 30
0.0
  0
VERTEX
  5
1EB
  8
0
 10
-21.82741305375662
 20
44.99699275110946
 30
0.0
  0
VERTEX
  5
1EC
  8
0
 10
-22.84192871101731
 20
44.48957763730016
 30
0.0
  0
VERTEX
  5
1ED
  8
0
 10
-23.84317400044176
 20
43.95999760054141
 30
0.0
  0
VERTEX
  5
1EE
  8
0
 10
-24.8308269111917
 20
43.40857462830684
 30
0.0
  0
VERTEX
  5
1EF
  8
0
 10
-25.80456543242888
 20
42.83563070807008
 30
0.0
  0
VERTEX
  5
1F0
  8
0
 10
-26.76406755331504
 20
42.24148782730477
 30
0.0
  0
VERTEX
  5
1F1
  8
0
 10
-27.70901126301192
 20
41.62646797348452
 30
0.0
  0
VERTEX
  5
1F2
  8
0
 10
-28.63907455068124
 20
40.99089313408295
 30
0.0
  0
VERTEX
  5
1F3
  8
0
 10
-29.55393540548477
 20
40.33508529657369
 30
0.0
  0
VERTEX
  5
1F4
  8
0
 10
-30.45327181658424
 20
39.65936644843039
 30
0.0
  0
VERTEX
  5
1F5
  8
0
 10
-31.33676177314138
 20
38.96405857712665
 30
0.0
  0
VERTEX
  5
1F6
  8
0
 10
-32.20408326431793
 20
38.2494836701361
 30
0.0
  0
VERTEX
  5
1F7
  8
0
 10
-33.05491427927564
 20
37.51596371493238
 30
0.0
  0
VERTEX
  5
1F8
  8
0
 10
-33.88893280717623
 20
36.76382069898911
 30
0.0
  0
VERTEX
  5
1F9
  8
0
 10
-34.70581683718146
 20
35.9933766097799
 30
0.0
  0
VERTEX
  5
1FA
  8
0
 10
-35.50524435845306
 20
35.2049534347784
 30
0.0
  0
VERTEX
  5
1FB
  8
0
 10
-36.28689336015277
 20
34.39887316145823
 30
0.0
  0
VERTEX
  5
1FC
  8
0
 10
-37.05044183144235
 20
33.57545777729301
 30
0.0
  0
VERTEX
  5
1FD
  8
0
 10
-37.79556776148351
 20
32.73502926975637
 30
0.0
  0
VERTEX
  5
1FE
  8
0
 10
-38.521949139438
 20
31.87790962632195
 30
0.0
  0
VERTEX
  5
1FF
  8
0
 10
-39.22926395446756
 20
31.00442083446335
 30
0.0
  0
VERTEX
  5
200
  8
0
 10
-39.91719019573394
 20
30.11488488165422
 30
0.0
  0
VERTEX
  5
201
  8
0
 10
-40.58540585239886
 20
29.20962375536817
 30
0.0
  0
VERTEX
  5
202
  8
0
 10
-41.23358891362407
 20
28.28895944307884
 30
0.0
  0
VERTEX
  5
203
  8
0
 10
-41.86141736857131
 20
27.35321393225984
 30
0.0
  0
VERTEX
  5
204
  8
0
 10
-42.46856920640232
 20
26.40270921038482
 30
0.0
  0
VERTEX
  5
205
  8
0
 10
-43.05472241627884
 20
25.43776726492739
 30
0.0
  0
VERTEX
  5
206
  8
0
 10
-43.6195549873626
 20
24.45871008336117
 30
0.0
  0
VERTEX
  5
207
  8
0
 10
-44.16274490881535
 20
23.4658596531598
 30
0.0
  0
VERTEX
  5
208
  8
0
 10
-44.68397016979883
 20
22.4595379617969
 30
0.0
  0
VERTEX
  5
209
  8
0
 10
-45.18290875947478
 20
21.44006699674611
 30
0.0
  0
VERTEX
  5
20A
  8
0
 10
-45.65923866700493
 20
20.40776874548104
 30
0.0
  0
VERTEX
  5
20B
  8
0
 10
-46.11263788155102
 20
19.36296519547532
 30
0.0
  0
VERTEX
  5
20C
  8
0
 10
-46.54278439227481
 20
18.30597833420258
 30
0.0
  0
VERTEX
  5
20D
  8
0
 10
-46.94935618833802
 20
17.23713014913644
 30
0.0
  0
VERTEX
  5
20E
  8
0
 10
-47.33203125890238
 20
16.15674262775054
 30
0.0
  0
VERTEX
  5
20F
  8
0
 10
-47.69048759312966
 20
15.06513775751849
 30
0.0
  0
VERTEX
  5
210
  8
0
 10
-48.02440318018158
 20
13.96263752591393
 30
0.0
  0
VERTEX
  5
211
  8
0
 10
-48.33345600921987
 20
12.84956392041048
 30
0.0
  0
VERTEX
  5
212
  8
0
 10
-48.6173240694063
 20
11.72623892848177
 30
0.0
  0
VERTEX
  5
213
  8
0
 10
-48.87568534990258
 20
10.59298453760142
 30
0.0
  0
VERTEX
  5
214
  8
0
 10
-49.10821783987048
 20
9.45012273524306
 30
0.0
  0
VERTEX
  5
215
  8
0
 10
-49.3145995284717
 20
8.29797550888032
 30
0.0
  0
VERTEX
  5
216
  8
0
 10
-49.49450840486802
 20
7.136864845986824
 30
0.0
  0
VERTEX
  5
217
  8
0
 10
-49.64762245822115
 20
5.967112734036197
 30
0.0
  0
VERTEX
  5
218
  8
0
 10
-49.77361967769284
 20
4.789041160502068
 30
0.0
  0
VERTEX
  5
219
  8
0
 10
-49.87217805244482
 20
3.602972112858062
 30
0.0
  0
VERTEX
  5
21A
  8
0
 10
-49.94297557163886
 20
2.409227578577806
 30
0.0
  0
VERTEX
  5
21B
  8
0
 10
-49.98569022443667
 20
1.208129545134926
 30
0.0
  0
VERTEX
  5
21C
  8
0
 10
-49.99999999999999
 20
0.0000000000030482
 30
0.0
  0
VERTEX
  5
21D
  8
0
 10
-49.99565624891367
 20
-0.6591939546008122
 30
0.0
  0
VERTEX
  5
21E
  8
0
 10
-49.98264140602588
 20
-1.317645607266182
 30
0.0
  0
VERTEX
  5
21F
  8
0
 10
-49.9609800868935
 20
-1.975274378409683
 30
0.0
  0
VERTEX
  5
220
  8
0
 10
-49.93069690707333
 20
-2.631999688447938
 30
0.0
  0
VERTEX
  5
221
  8
0
 10
-49.89181648212221
 20
-3.28774095779757
 30
0.0
  0
VERTEX
  5
222
  8
0
 10
-49.84436342759697
 20
-3.942417606875201
 30
0.0
  0
VERTEX
  5
223
  8
0
 10
-49.78836235905446
 20
-4.595949056097454
 30
0.0
  0
VERTEX
  5
224
  8
0
 10
-49.72383789205149
 20
-5.248254725880951
 30
0.0
  0
VERTEX
  5
225
  8
0
 10
-49.65081464214492
 20
-5.899254036642315
 30
0.0
  0
VERTEX
  5
226
  8
0
 10
-49.56931722489156
 20
-6.548866408798169
 30
0.0
  0
VERTEX
  5
227
  8
0
 10
-49.47937025584825
 20
-7.197011262765134
 30
0.0
  0
VERTEX
  5
228
  8
0
 10
-49.38099835057183
 20
-7.843608018959834
 30
0.0
  0
VERTEX
  5
229
  8
0
 10
-49.27422612461912
 20
-8.48857609779889
 30
0.0
  0
VERTEX
  5
22A
  8
0
 10
-49.15907819354697
 20
-9.131834919698928
 30
0.0
  0
VERTEX
  5
22B
  8
0
 10
-49.03557917291219
 20
-9.773303905076567
 30
0.0
  0
VERTEX
  5
22C
  8
0
 10
-48.90375367827164
 20
-10.41290247434843
 30
0.0
  0
VERTEX
  5
22D
  8
0
 10
-48.76362632518214
 20
-11.05055004793114
 30
0.0
  0
VERTEX
  5
22E
  8
0
 10
-48.61522172920051
 20
-11.68616604624132
 30
0.0
  0
VERTEX
  5
22F
  8
0
 10
-48.45856450588361
 20
-12.31966988969559
 30
0.0
  0
VERTEX
  5
230
  8
0
 10
-48.29367927078825
 20
-12.95098099871058
 30
0.0
  0
VERTEX
  5
231
  8
0
 10
-48.12059063947128
 20
-13.58001879370291
 30
0.0
  0
VERTEX
  5
232
  8
0
 10
-47.93932322748952
 20
-14.20670269508919
 30
0.0
  0
VERTEX
  5
233
  8
0
 10
-47.74990165039981
 20
-14.83095212328606
 30
0.0
  0
VERTEX
  5
234
  8
0
 10
-47.55235052375898
 20
-15.45268649871013
 30
0.0
  0
VERTEX
  5
235
  8
0
 10
-47.34669446312387
 20
-16.07182524177803
 30
0.0
  0
VERTEX
  5
236
  8
0
 10
-47.1329580840513
 20
-16.68828777290638
 30
0.0
  0
VERTEX
  5
237
  8
0
 10
-46.91116600209811
 20
-17.3019935125118
 30
0.0
  0
VERTEX
  5
238
  8
0
 10
-46.68134283282114
 20
-17.91286188101092
 30
0.0
  0
VERTEX
  5
239
  8
0
 10
-46.44351319177721
 20
-18.52081229882035
 30
0.0
  0
VERTEX
  5
23A
  8
0
 10
-46.19770169452317
 20
-19.12576418635673
 30
0.0
  0
VERTEX
  5
23B
  8
0
 10
-45.94393295661583
 20
-19.72763696403667
 30
0.0
  0
VERTEX
  5
23C
  8
0
 10
-45.68223159361204
 20
-20.32635005227679
 30
0.0
  0
VERTEX
  5
23D
  8
0
 10
-45.82526477395164
 20
-20.49037845644204
 30
0.0
  0
VERTEX
  5
23E
  8
0
 10
-45.96112213748612
 20
-20.65930113108011
 30
0.0
  0
VERTEX
  5
23F
  8
0
 10
-46.08973727672791
 20
-20.83286995584448
 30
0.0
  0
VERTEX
  5
240
  8
0
 10
-46.21104378418946
 20
-21.01083681038866
 30
0.0
  0
VERTEX
  5
241
  8
0
 10
-46.32497525238318
 20
-21.19295357436614
 30
0.0
  0
VERTEX
  5
242
  8
0
 10
-46.43146527382154
 20
-21.37897212743041
 30
0.0
  0
VERTEX
  5
243
  8
0
 10
-46.53044744101697
 20
-21.56864434923496
 30
0.0
  0
VERTEX
  5
244
  8
0
 10
-46.62185534648189
 20
-21.76172211943327
 30
0.0
  0
VERTEX
  5
245
  8
0
 10
-46.70562258272875
 20
-21.95795731767885
 30
0.0
  0
VERTEX
  5
246
  8
0
 10
-46.78168274226998
 20
-22.15710182362519
 30
0.0
  0
VERTEX
  5
247
  8
0
 10
-46.84996941761803
 20
-22.35890751692577
 30
0.0
  0
VERTEX
  5
248
  8
0
 10
-46.91041620128533
 20
-22.56312627723409
 30
0.0
  0
VERTEX
  5
249
  8
0
 10
-46.96295668578431
 20
-22.76950998420363
 30
0.0
  0
VERTEX
  5
24A
  8
0
 10
-47.00752446362742
 20
-22.9778105174879
 30
0.0
  0
VERTEX
  5
24B
  8
0
 10
-47.04405312732709
 20
-23.18777975674038
 30
0.0
  0
VERTEX
  5
24C
  8
0
 10
-47.07247626939576
 20
-23.39916958161457
 30
0.0
  0
VERTEX
  5
24D
  8
0
 10
-47.09272748234586
 20
-23.61173187176394
 30
0.0
  0
VERTEX
  5
24E
  8
0
 10
-47.10474035868984
 20
-23.82521850684201
 30
0.0
  0
VERTEX
  5
24F
  8
0
 10
-47.10844849094013
 20
-24.03938136650225
 30
0.0
  0
VERTEX
  5
250
  8
0
 10
-47.10378547160916
 20
-24.25397233039816
 30
0.0
  0
VERTEX
  5
251
  8
0
 10
-47.09068489320939
 20
-24.46874327818323
 30
0.0
  0
VERTEX
  5
252
  8
0
 10
-47.06908034825322
 20
-24.68344608951096
 30
0.0
  0
VERTEX
  5
253
  8
0
 10
-47.03890542925312
 20
-24.89783264403483
 30
0.0
  0
VERTEX
  5
254
  8
0
 10
-47.00009372872151
 20
-25.11165482140834
 30
0.0
  0
VERTEX
  5
255
  8
0
 10
-46.95257883917084
 20
-25.32466450128497
 30
0.0
  0
VERTEX
  5
256
  8
0
 10
-46.89629435311353
 20
-25.53661356331823
 30
0.0
  0
VERTEX
  5
257
  8
0
 10
-46.83117386306203
 20
-25.74725388716159
 30
0.0
  0
VERTEX
  5
258
  8
0
 10
-46.75715096152879
 20
-25.95633735246856
 30
0.0
  0
VERTEX
  5
259
  8
0
 10
-46.67415924102622
 20
-26.16361583889262
 30
0.0
  0
VERTEX
  5
25A
  8
0
 10
-46.58213229406677
 20
-26.36884122608726
 30
0.0
  0
VERTEX
  5
25B
  8
0
 10
-46.48100371316288
 20
-26.57176539370598
 30
0.0
  0
VERTEX
  5
25C
  8
0
 10
-46.37070709082697
 20
-26.77214022140227
 30
0.0
  0
VERTEX
  5
25D
  8
0
 10
-46.25234751709392
 20
-26.96781284817214
 30
0.0
  0
VERTEX
  5
25E
  8
0
 10
-46.12719858523943
 20
-27.1568225200126
 30
0.0
  0
VERTEX
  5
25F
  8
0
 10
-45.99550831446794
 20
-27.33910245833429
 30
0.0
  0
VERTEX
  5
260
  8
0
 10
-45.85752472398396
 20
-27.51458588454786
 30
0.0
  0
VERTEX
  5
261
  8
0
 10
-45.71349583299195
 20
-27.68320602006398
 30
0.0
  0
VERTEX
  5
262
  8
0
 10
-45.56366966069639
 20
-27.84489608629329
 30
0.0
  0
VERTEX
  5
263
  8
0
 10
-45.40829422630175
 20
-27.99958930464644
 30
0.0
  0
VERTEX
  5
264
  8
0
 10
-45.24761754901252
 20
-28.14721889653408
 30
0.0
  0
VERTEX
  5
265
  8
0
 10
-45.08188764803316
 20
-28.28771808336687
 30
0.0
  0
VERTEX
  5
266
  8
0
 10
-44.91135254256814
 20
-28.42102008655546
 30
0.0
  0
VERTEX
  5
267
  8
0
 10
-44.73626025182196
 20
-28.54705812751049
 30
0.0
  0
VERTEX
  5
268
  8
0
 10
-44.55685879499908
 20
-28.66576542764262
 30
0.0
  0
VERTEX
  5
269
  8
0
 10
-44.37339619130398
 20
-28.7770752083625
 30
0.0
  0
VERTEX
  5
26A
  8
0
 10
-44.18612045994114
 20
-28.88092069108077
 30
0.0
  0
VERTEX
  5
26B
  8
0
 10
-43.99527962011501
 20
-28.97723509720811
 30
0.0
  0
VERTEX
  5
26C
  8
0
 10
-43.8011216910301
 20
-29.06595164815514
 30
0.0
  0
VERTEX
  5
26D
  8
0
 10
-43.60389469189087
 20
-29.14700356533253
 30
0.0
  0
VERTEX
  5
26E
  8
0
 10
-43.40384664190181
 20
-29.22032407015093
 30
0.0
  0
VERTEX
  5
26F
  8
0
 10
-43.20122556026737
 20
-29.28584638402098
 30
0.0
  0
VERTEX
  5
270
  8
0
 10
-42.99627946619204
 20
-29.34350372835334
 30
0.0
  0
VERTEX
  5
271
  8
0
 10
-42.78925637888029
 20
-29.39322932455866
 30
0.0
  0
VERTEX
  5
272
  8
0
 10
-42.5804043175366
 20
-29.4349563940476
 30
0.0
  0
VERTEX
  5
273
  8
0
 10
-42.36997130136545
 20
-29.46861815823079
 30
0.0
  0
VERTEX
  5
274
  8
0
 10
-42.15820534957132
 20
-29.4941478385189
 30
0.0
  0
VERTEX
  5
275
  8
0
 10
-41.94535448135867
 20
-29.51147865632257
 30
0.0
  0
VERTEX
  5
276
  8
0
 10
-41.73166671593198
 20
-29.52054383305246
 30
0.0
  0
VERTEX
  5
277
  8
0
 10
-41.51739007249573
 20
-29.52127659011922
 30
0.0
  0
VERTEX
  5
278
  8
0
 10
-41.3027725702544
 20
-29.5136101489335
 30
0.0
  0
VERTEX
  5
279
  8
0
 10
-41.08806222841245
 20
-29.49747773090595
 30
0.0
  0
VERTEX
  5
27A
  8
0
 10
-40.87350706617438
 20
-29.47281255744722
 30
0.0
  0
VERTEX
  5
27B
  8
0
 10
-40.65935510274464
 20
-29.43954784996797
 30
0.0
  0
SEQEND
  5
27C
  8
0
  0
ENDSEC
  0
EOF
