  0
SECTION
  2
HEADER
  9
$ACADVER
  1
AC1009
  9
$DWGCODEPAGE
  3
ansi_1252
  9
$INSBASE
 10
0.0
 20
0.0
 30
0.0
  9
$EXTMIN
 10
-29.99999999999999
 20
-29.36843119476951
 30
0.0
  9
$EXTMAX
 10
30.0
 20
30.00000000000304
 30
0.0
  9
$LIMMIN
 10
0.0
 20
0.0
  9
$LIMMAX
 10
12.0
 20
9.0
  9
$ORTHOMODE
 70
     0
  9
$REGENMODE
 70
     1
  9
$FILLMODE
 70
     1
  9
$QTEXTMODE
 70
     0
  9
$MIRRTEXT
 70
     1
  9
$DRAGMODE
 70
     2
  9
$LTSCALE
 40
1.0
  9
$OSMODE
 70
    37
  9
$ATTMODE
 70
     1
  9
$TEXTSIZE
 40
0.2
  9
$TRACEWID
 40
0.05
  9
$TEXTSTYLE
  7
STANDARD
  9
$CLAYER
  8
0
  9
$CELTYPE
  6
BYLAYER
  9
$CECOLOR
 62
   256
  9
$DIMSCALE
 40
1.0
  9
$DIMASZ
 40
0.18
  9
$DIMEXO
 40
0.0625
  9
$DIMDLI
 40
0.38
  9
$DIMRND
 40
0.0
  9
$DIMDLE
 40
0.0
  9
$DIMEXE
 40
0.18
  9
$DIMTP
 40
0.0
  9
$DIMTM
 40
0.0
  9
$DIMTXT
 40
0.18
  9
$DIMCEN
 40
0.09
  9
$DIMTSZ
 40
0.0
  9
$DIMTOL
 70
     0
  9
$DIMLIM
 70
     0
  9
$DIMTIH
 70
     1
  9
$DIMTOH
 70
     1
  9
$DIMSE1
 70
     0
  9
$DIMSE2
 70
     0
  9
$DIMTAD
 70
     0
  9
$DIMZIN
 70
     0
  9
$DIMBLK
  1

  9
$DIMASO
 70
     1
  9
$DIMSHO
 70
     1
  9
$DIMPOST
  1

  9
$DIMAPOST
  1

  9
$DIMALT
 70
     0
  9
$DIMALTD
 70
     2
  9
$DIMALTF
 40
25.4
  9
$DIMLFAC
 40
1.0
  9
$DIMTOFL
 70
     0
  9
$DIMTVP
 40
0.0
  9
$DIMTIX
 70
     0
  9
$DIMSOXD
 70
     0
  9
$DIMSAH
 70
     0
  9
$DIMBLK1
  1

  9
$DIMBLK2
  1

  9
$DIMSTYLE
  2
STANDARD
  9
$DIMCLRD
 70
     0
  9
$DIMCLRE
 70
     0
  9
$DIMCLRT
 70
     0
  9
$DIMTFAC
 40
1.0
  9
$DIMGAP
 40
0.09
  9
$LUNITS
 70
     2
  9
$LUPREC
 70
     4
  9
$SKETCHINC
 40
0.1
  9
$FILLETRAD
 40
0.5
  9
$AUNITS
 70
     0
  9
$AUPREC
 70
     0
  9
$MENU
  1
.
  9
$ELEVATION
 40
0.0
  9
$PELEVATION
 40
0.0
  9
$THICKNESS
 40
0.0
  9
$LIMCHECK
 70
     0
  9
$CHAMFERA
 40
0.5
  9
$CHAMFERB
 40
0.5
  9
$SKPOLY
 70
     0
  9
$TDCREATE
 40
2454910.5
  9
$TDUPDATE
 40
2456409.45869669
  9
$TDINDWG
 40
0.0000000116
  9
$TDUSRTIMER
 40
0.0000000116
  9
$USRTIMER
 70
     1
  9
$ANGBASE
 50
0.0
  9
$ANGDIR
 70
     0
  9
$PDMODE
 70
     0
  9
$PDSIZE
 40
0.0
  9
$PLINEWID
 40
0.0
  9
$COORDS
 70
     1
  9
$SPLFRAME
 70
     0
  9
$SPLINETYPE
 70
     6
  9
$SPLINESEGS
 70
     8
  9
$ATTDIA
 70
     0
  9
$ATTREQ
 70
     1
  9
$HANDLING
 70
     1
  9
$HANDSEED
  5
F5
  9
$SURFTAB1
 70
     6
  9
$SURFTAB2
 70
     6
  9
$SURFTYPE
 70
     6
  9
$SURFU
 70
     6
  9
$SURFV
 70
     6
  9
$UCSNAME
  2

  9
$UCSORG
 10
0.0
 20
0.0
 30
0.0
  9
$UCSXDIR
 10
1.0
 20
0.0
 30
0.0
  9
$UCSYDIR
 10
0.0
 20
1.0
 30
0.0
  9
$PUCSNAME
  2

  9
$PUCSORG
 10
0.0
 20
0.0
 30
0.0
  9
$PUCSXDIR
 10
1.0
 20
0.0
 30
0.0
  9
$PUCSYDIR
 10
0.0
 20
1.0
 30
0.0
  9
$USERI1
 70
     0
  9
$USERI2
 70
     0
  9
$USERI3
 70
     0
  9
$USERI4
 70
     0
  9
$USERI5
 70
     0
  9
$USERR1
 40
0.0
  9
$USERR2
 40
0.0
  9
$USERR3
 40
0.0
  9
$USERR4
 40
0.0
  9
$USERR5
 40
0.0
  9
$WORLDVIEW
 70
     1
  9
$SHADEDGE
 70
     3
  9
$SHADEDIF
 70
    70
  9
$TILEMODE
 70
     1
  9
$MAXACTVP
 70
    64
  9
$PLIMCHECK
 70
     0
  9
$PEXTMIN
 10
1.000000000000000E+20
 20
1.000000000000000E+20
 30
1.000000000000000E+20
  9
$PEXTMAX
 10
-1.000000000000000E+20
 20
-1.000000000000000E+20
 30
-1.000000000000000E+20
  9
$PLIMMIN
 10
0.0
 20
0.0
  9
$PLIMMAX
 10
12.0
 20
9.0
  9
$UNITMODE
 70
     0
  9
$VISRETAIN
 70
     1
  9
$PLINEGEN
 70
     0
  9
$PSLTSCALE
 70
     1
  0
ENDSEC
  0
SECTION
  2
TABLES
  0
TABLE
  2
VPORT
 70
     1
  0
VPORT
  2
*ACTIVE
 70
     0
 10
0.0
 20
0.0
 11
1.0
 21
1.0
 12
10.42990654205607
 22
4.5
 13
0.0
 23
0.0
 14
0.5
 24
0.5
 15
0.5
 25
0.5
 16
0.0
 26
0.0
 36
1.0
 17
0.0
 27
0.0
 37
0.0
 40
9.0
 41
1.972972972850329
 42
50.0
 43
0.0
 44
0.0
 50
0.0
 51
0.0
 71
     0
 72
   100
 73
     1
 74
     3
 75
     0
 76
     0
 77
     0
 78
     0
  0
ENDTAB
  0
TABLE
  2
LTYPE
 70
     2
  0
LTYPE
  2
CONTINUOUS
 70
     0
  3
Solid line
 72
    65
 73
     0
 40
0.0
  0
LTYPE
  2
CONTINUOUS2
 70
     0
  3
Solid Line
 72
    65
 73
     0
 40
0.0
  0
ENDTAB
  0
TABLE
  2
LAYER
 70
     1
  0
LAYER
  2
0
 70
     0
 62
     7
  6
CONTINUOUS
  0
ENDTAB
  0
TABLE
  2
STYLE
 70
     1
  0
STYLE
  2
STANDARD
 70
     0
 40
0.0
 41
1.0
 50
0.0
 71
     0
 42
0.2
  3
txt
  4

  0
ENDTAB
  0
TABLE
  2
VIEW
 70
     0
  0
ENDTAB
  0
TABLE
  2
UCS
 70
     0
  0
ENDTAB
  0
TABLE
  2
APPID
 70
     1
  0
APPID
  2
ACAD
 70
     0
  0
ENDTAB
  0
TABLE
  2
DIMSTYLE
 70
     1
  0
DIMSTYLE
  2
STANDARD
 70
     0
  3

  4

  5

  6

  7

 40
1.0
 41
0.18
 42
0.0625
 43
0.38
 44
0.18
 45
0.0
 46
0.0
 47
0.0
 48
0.0
140
0.18
141
0.09
142
0.0
143
25.4
144
1.0
145
0.0
146
1.0
147
0.09
 71
     0
 72
     0
 73
     1
 74
     1
 75
     0
 76
     0
 77
     0
 78
     0
170
     0
171
     2
172
     0
173
     0
174
     0
175
     0
176
     0
177
     0
178
     0
  0
ENDTAB
  0
ENDSEC
  0
SECTION
  2
BLOCKS
  0
BLOCK
  8
0
  2
$MODEL_SPACE
 70
     0
 10
0.0
 20
0.0
 30
0.0
  3
$MODEL_SPACE
  1

  0
ENDBLK
  5
21
  8
0
  0
BLOCK
 67
     1
  8
0
  2
$PAPER_SPACE
 70
     0
 10
0.0
 20
0.0
 30
0.0
  3
$PAPER_SPACE
  1

  0
ENDBLK
  5
1D
 67
     1
  8
0
  0
ENDSEC
  0
SECTION
  2
ENTITIES
  0
POLYLINE
  5
3C
  8
0
 66
     1
 10
0.0
 20
0.0
 30
0.0
 70
     1
  0
VERTEX
  5
47
  8
0
 10
-6.151465288328263
 20
-29.36843119476951
 30
0.0
  0
VERTEX
  5
48
  8
0
 10
-6.15
 20
-0.0056532781176863
 30
0.0
  0
VERTEX
  5
49
  8
0
 10
-6.099852887229781
 20
-0.005653329036373
 30
0.0
  0
VERTEX
  5
4A
  8
0
 10
-6.1
 20
0.0
 30
0.0
 42
-0.4142135623730951
  0
VERTEX
  5
4B
  8
0
 10
0.0
 20
6.1
 30
0.0
 42
-0.4142135623730951
  0
VERTEX
  5
4C
  8
0
 10
6.1
 20
0.0
 30
0.0
  0
VERTEX
  5
4D
  8
0
 10
6.099852900593566
 20
-0.005653410691558
 30
0.0
  0
VERTEX
  5
4E
  8
0
 10
6.15
 20
-0.0056532781176863
 30
0.0
  0
VERTEX
  5
4F
  8
0
 10
6.150653038643037
 20
-29.3679033815024
 30
0.0
  0
VERTEX
  5
50
  8
0
 10
6.787538469142087
 20
-29.22792826138139
 30
0.0
  0
VERTEX
  5
51
  8
0
 10
7.419240292174775
 20
-29.07456755076971
 30
0.0
  0
VERTEX
  5
52
  8
0
 10
8.045603429785594
 20
-28.90797908028217
 30
0.0
  0
VERTEX
  5
53
  8
0
 10
8.66647280401903
 20
-28.72832068053358
 30
0.0
  0
VERTEX
  5
54
  8
0
 10
9.281693336919574
 20
-28.53575018213873
 30
0.0
  0
VERTEX
  5
55
  8
0
 10
9.891109950531717
 20
-28.33042541571246
 30
0.0
  0
VERTEX
  5
56
  8
0
 10
10.49456756689995
 20
-28.11250421186956
 30
0.0
  0
VERTEX
  5
57
  8
0
 10
11.09191110806875
 20
-27.88214440122485
 30
0.0
  0
VERTEX
  5
58
  8
0
 10
11.68298549608262
 20
-27.63950381439313
 30
0.0
  0
VERTEX
  5
59
  8
0
 10
12.26763565298604
 20
-27.38474028198922
 30
0.0
  0
VERTEX
  5
5A
  8
0
 10
12.8457065008235
 20
-27.11801163462792
 30
0.0
  0
VERTEX
  5
5B
  8
0
 10
13.4170429616395
 20
-26.83947570292405
 30
0.0
  0
VERTEX
  5
5C
  8
0
 10
13.98148995747852
 20
-26.54929031749241
 30
0.0
  0
VERTEX
  5
5D
  8
0
 10
14.53889241038505
 20
-26.24761330894782
 30
0.0
  0
VERTEX
  5
5E
  8
0
 10
15.08909524240357
 20
-25.93460250790508
 30
0.0
  0
VERTEX
  5
5F
  8
0
 10
15.6319433755786
 20
-25.61041574497901
 30
0.0
  0
VERTEX
  5
60
  8
0
 10
16.1672817319546
 20
-25.27521085078441
 30
0.0
  0
VERTEX
  5
61
  8
0
 10
16.69495523357606
 20
-24.92914565593609
 30
0.0
  0
VERTEX
  5
62
  8
0
 10
17.21480880248748
 20
-24.57237799104887
 30
0.0
  0
VERTEX
  5
63
  8
0
 10
17.72668736073335
 20
-24.20506568673755
 30
0.0
  0
VERTEX
  5
64
  8
0
 10
18.23043583035815
 20
-23.82736657361695
 30
0.0
  0
VERTEX
  5
65
  8
0
 10
18.72589913340639
 20
-23.43943848230186
 30
0.0
  0
VERTEX
  5
66
  8
0
 10
19.21292219192253
 20
-23.04143924340712
 30
0.0
  0
VERTEX
  5
67
  8
0
 10
19.69134992795107
 20
-22.63352668754751
 30
0.0
  0
VERTEX
  5
68
  8
0
 10
20.16102726353651
 20
-22.21585864533785
 30
0.0
  0
VERTEX
  5
69
  8
0
 10
20.62179912072333
 20
-21.78859294739296
 30
0.0
  0
VERTEX
  5
6A
  8
0
 10
21.07351042155602
 20
-21.35188742432764
 30
0.0
  0
VERTEX
  5
6B
  8
0
 10
21.51600608807907
 20
-20.9058999067567
 30
0.0
  0
VERTEX
  5
6C
  8
0
 10
21.94913104233697
 20
-20.45078822529496
 30
0.0
  0
VERTEX
  5
6D
  8
0
 10
22.37273020637421
 20
-19.98671021055721
 30
0.0
  0
VERTEX
  5
6E
  8
0
 10
22.78664850223528
 20
-19.51382369315828
 30
0.0
  0
VERTEX
  5
6F
  8
0
 10
23.19073085196466
 20
-19.03228650371297
 30
0.0
  0
VERTEX
  5
70
  8
0
 10
23.58482217760685
 20
-18.54225647283609
 30
0.0
  0
VERTEX
  5
71
  8
0
 10
23.96876740120634
 20
-18.04389143114244
 30
0.0
  0
VERTEX
  5
72
  8
0
 10
24.34241144480761
 20
-17.53734920924686
 30
0.0
  0
VERTEX
  5
73
  8
0
 10
24.70559923045516
 20
-17.02278763776413
 30
0.0
  0
VERTEX
  5
74
  8
0
 10
25.05817568019346
 20
-16.50036454730907
 30
0.0
  0
VERTEX
  5
75
  8
0
 10
25.39998571606703
 20
-15.97023776849649
 30
0.0
  0
VERTEX
  5
76
  8
0
 10
25.73087426012033
 20
-15.4325651319412
 30
0.0
  0
VERTEX
  5
77
  8
0
 10
26.05068623439787
 20
-14.88750446825802
 30
0.0
  0
VERTEX
  5
78
  8
0
 10
26.35926656094412
 20
-14.33521360806174
 30
0.0
  0
VERTEX
  5
79
  8
0
 10
26.65646016180358
 20
-13.77585038196718
 30
0.0
  0
VERTEX
  5
7A
  8
0
 10
26.94211195902074
 20
-13.20957262058915
 30
0.0
  0
VERTEX
  5
7B
  8
0
 10
27.21606687464009
 20
-12.63653815454246
 30
0.0
  0
VERTEX
  5
7C
  8
0
 10
27.47816983070612
 20
-12.05690481444192
 30
0.0
  0
VERTEX
  5
7D
  8
0
 10
27.72826574926331
 20
-11.47083043090233
 30
0.0
  0
VERTEX
  5
7E
  8
0
 10
27.96619955235616
 20
-10.87847283453852
 30
0.0
  0
VERTEX
  5
7F
  8
0
 10
28.19181616202916
 20
-10.27998985596528
 30
0.0
  0
VERTEX
  5
80
  8
0
 10
28.40496050032678
 20
-9.675539325797434
 30
0.0
  0
VERTEX
  5
81
  8
0
 10
28.60547748929353
 20
-9.065279074649784
 30
0.0
  0
VERTEX
  5
82
  8
0
 10
28.7932120509739
 20
-8.449366933137139
 30
0.0
  0
VERTEX
  5
83
  8
0
 10
28.96800910741237
 20
-7.827960731874313
 30
0.0
  0
VERTEX
  5
84
  8
0
 10
29.12971358065343
 20
-7.201218301476114
 30
0.0
  0
VERTEX
  5
85
  8
0
 10
29.27817039274156
 20
-6.569297472557354
 30
0.0
  0
VERTEX
  5
86
  8
0
 10
29.41322446572127
 20
-5.932356075732841
 30
0.0
  0
VERTEX
  5
87
  8
0
 10
29.53472072163704
 20
-5.290551941617384
 30
0.0
  0
VERTEX
  5
88
  8
0
 10
29.64250408253336
 20
-4.644042900825793
 30
0.0
  0
VERTEX
  5
89
  8
0
 10
29.73641947045471
 20
-3.99298678397288
 30
0.0
  0
VERTEX
  5
8A
  8
0
 10
29.81631180744559
 20
-3.337541421673452
 30
0.0
  0
VERTEX
  5
8B
  8
0
 10
29.88202601555048
 20
-2.67786464454232
 30
0.0
  0
VERTEX
  5
8C
  8
0
 10
29.93340701681388
 20
-2.014114283194295
 30
0.0
  0
VERTEX
  5
8D
  8
0
 10
29.97029973328027
 20
-1.346448168244185
 30
0.0
  0
VERTEX
  5
8E
  8
0
 10
29.99254908699415
 20
-0.6750241303068004
 30
0.0
  0
VERTEX
  5
8F
  8
0
 10
30.0
 20
0.0000000000030488
 30
0.0
 42
0.4142135623730951
  0
VERTEX
  5
90
  8
0
 10
0.0000000000000065
 20
30.00000000000304
 30
0.0
 42
0.4142135623730951
  0
VERTEX
  5
91
  8
0
 10
-29.99999999999999
 20
0.0000000000030488
 30
0.0
  0
VERTEX
  5
92
  8
0
 10
-29.99253349924288
 20
-0.6760207919394319
 30
0.0
  0
VERTEX
  5
93
  8
0
 10
-29.97023838456439
 20
-1.348384989056091
 30
0.0
  0
VERTEX
  5
94
  8
0
 10
-29.93327123735379
 20
-2.016935976419877
 30
0.0
  0
VERTEX
  5
95
  8
0
 10
-29.88178863900034
 20
-2.681517139103737
 30
0.0
  0
VERTEX
  5
96
  8
0
 10
-29.8159471708933
 20
-3.34197186218062
 30
0.0
  0
VERTEX
  5
97
  8
0
 10
-29.73590341442194
 20
-3.998143530723475
 30
0.0
  0
VERTEX
  5
98
  8
0
 10
-29.64181395097553
 20
-4.649875529805248
 30
0.0
  0
VERTEX
  5
99
  8
0
 10
-29.53383536194332
 20
-5.297011244498887
 30
0.0
  0
VERTEX
  5
9A
  8
0
 10
-29.41212422871457
 20
-5.939394059877342
 30
0.0
  0
VERTEX
  5
9B
  8
0
 10
-29.27683713267856
 20
-6.57686736101356
 30
0.0
  0
VERTEX
  5
9C
  8
0
 10
-29.12813065522455
 20
-7.209274532980491
 30
0.0
  0
VERTEX
  5
9D
  8
0
 10
-28.96616137774178
 20
-7.836458960851081
 30
0.0
  0
VERTEX
  5
9E
  8
0
 10
-28.79108588161955
 20
-8.458264029698277
 30
0.0
  0
VERTEX
  5
9F
  8
0
 10
-28.6030607482471
 20
-9.074533124595032
 30
0.0
  0
VERTEX
  5
A0
  8
0
 10
-28.4022425590137
 20
-9.685109630614289
 30
0.0
  0
VERTEX
  5
A1
  8
0
 10
-28.18878789530862
 20
-10.289836932829
 30
0.0
  0
VERTEX
  5
A2
  8
0
 10
-27.96285333852111
 20
-10.88855841631211
 30
0.0
  0
VERTEX
  5
A3
  8
0
 10
-27.72459547004045
 20
-11.48111746613656
 30
0.0
  0
VERTEX
  5
A4
  8
0
 10
-27.47417087125589
 20
-12.06735746737532
 30
0.0
  0
VERTEX
  5
A5
  8
0
 10
-27.21173612355669
 20
-12.64712180510132
 30
0.0
  0
VERTEX
  5
A6
  8
0
 10
-26.93744780833212
 20
-13.22025386438751
 30
0.0
  0
VERTEX
  5
A7
  8
0
 10
-26.65146250697146
 20
-13.78659703030684
 30
0.0
  0
VERTEX
  5
A8
  8
0
 10
-26.35393680086395
 20
-14.34599468793226
 30
0.0
  0
VERTEX
  5
A9
  8
0
 10
-26.04502727139887
 20
-14.89829022233671
 30
0.0
  0
VERTEX
  5
AA
  8
0
 10
-25.72489049996547
 20
-15.44332701859316
 30
0.0
  0
VERTEX
  5
AB
  8
0
 10
-25.39368306795302
 20
-15.98094846177453
 30
0.0
  0
VERTEX
  5
AC
  8
0
 10
-25.05156155675079
 20
-16.51099793695379
 30
0.0
  0
VERTEX
  5
AD
  8
0
 10
-24.69868254774803
 20
-17.03331882920387
 30
0.0
  0
VERTEX
  5
AE
  8
0
 10
-24.33520262233401
 20
-17.54775452359774
 30
0.0
  0
VERTEX
  5
AF
  8
0
 10
-23.96127836189799
 20
-18.05414840520833
 30
0.0
  0
VERTEX
  5
B0
  8
0
 10
-23.57706634782924
 20
-18.55234385910859
 30
0.0
  0
VERTEX
  5
B1
  8
0
 10
-23.18272316151703
 20
-19.04218427037147
 30
0.0
  0
VERTEX
  5
B2
  8
0
 10
-22.77840538435061
 20
-19.52351302406993
 30
0.0
  0
VERTEX
  5
B3
  8
0
 10
-22.36426959771925
 20
-19.9961735052769
 30
0.0
  0
VERTEX
  5
B4
  8
0
 10
-21.94047238301221
 20
-20.46000909906533
 30
0.0
  0
VERTEX
  5
B5
  8
0
 10
-21.50717032161876
 20
-20.91486319050819
 30
0.0
  0
VERTEX
  5
B6
  8
0
 10
-21.06451999492816
 20
-21.3605791646784
 30
0.0
  0
VERTEX
  5
B7
  8
0
 10
-20.61267798432967
 20
-21.79700040664892
 30
0.0
  0
VERTEX
  5
B8
  8
0
 10
-20.15180087121256
 20
-22.22397030149271
 30
0.0
  0
VERTEX
  5
B9
  8
0
 10
-19.68204523696608
 20
-22.64133223428269
 30
0.0
  0
VERTEX
  5
BA
  8
0
 10
-19.20356766297952
 20
-23.04892959009184
 30
0.0
  0
VERTEX
  5
BB
  8
0
 10
-18.71652473064211
 20
-23.44660575399308
 30
0.0
  0
VERTEX
  5
BC
  8
0
 10
-18.22107302134314
 20
-23.83420411105939
 30
0.0
  0
VERTEX
  5
BD
  8
0
 10
-17.71736911647186
 20
-24.21156804636368
 30
0.0
  0
VERTEX
  5
BE
  8
0
 10
-17.20556959741755
 20
-24.57854094497893
 30
0.0
  0
VERTEX
  5
BF
  8
0
 10
-16.68583104556945
 20
-24.93496619197806
 30
0.0
  0
VERTEX
  5
C0
  8
0
 10
-16.15831004231685
 20
-25.28068717243405
 30
0.0
  0
VERTEX
  5
C1
  8
0
 10
-15.62316316904899
 20
-25.61554727141982
 30
0.0
  0
VERTEX
  5
C2
  8
0
 10
-15.08054700715514
 20
-25.93938987400833
 30
0.0
  0
VERTEX
  5
C3
  8
0
 10
-14.53061813802458
 20
-26.25205836527254
 30
0.0
  0
VERTEX
  5
C4
  8
0
 10
-13.97353314304655
 20
-26.55339613028537
 30
0.0
  0
VERTEX
  5
C5
  8
0
 10
-13.40944860361032
 20
-26.84324655411979
 30
0.0
  0
VERTEX
  5
C6
  8
0
 10
-12.83852110110516
 20
-27.12145302184875
 30
0.0
  0
VERTEX
  5
C7
  8
0
 10
-12.26090721692033
 20
-27.38785891854518
 30
0.0
  0
VERTEX
  5
C8
  8
0
 10
-11.6767635324451
 20
-27.64230762928205
 30
0.0
  0
VERTEX
  5
C9
  8
0
 10
-11.08624662906873
 20
-27.88464253913229
 30
0.0
  0
VERTEX
  5
CA
  8
0
 10
-10.48951308818047
 20
-28.11470703316885
 30
0.0
  0
VERTEX
  5
CB
  8
0
 10
-9.886719491169606
 20
-28.33234449646469
 30
0.0
  0
VERTEX
  5
CC
  8
0
 10
-9.278022419425387
 20
-28.53739831409274
 30
0.0
  0
VERTEX
  5
CD
  8
0
 10
-8.663578454337083
 20
-28.72971187112596
 30
0.0
  0
VERTEX
  5
CE
  8
0
 10
-8.043544177293954
 20
-28.90912855263731
 30
0.0
  0
VERTEX
  5
CF
  8
0
 10
-7.418076169685265
 20
-29.07549174369971
 30
0.0
  0
VERTEX
  5
D0
  8
0
 10
-6.78733101290028
 20
-29.22864482938613
 30
0.0
  0
SEQEND
  5
D1
  8
0
  0
POLYLINE
  5
3D
  8
0
 66
     1
 10
0.0
 20
0.0
 30
0.0
 70
     1
  0
VERTEX
  5
D2
  8
0
 10
-11.5
 20
1.55
 30
0.0
 42
0.4142135623730951
  0
VERTEX
  5
D3
  8
0
 10
-13.05
 20
0.0
 30
0.0
 42
0.4142135623730951
  0
VERTEX
  5
D4
  8
0
 10
-11.5
 20
-1.55
 30
0.0
 42
0.4142135623730951
  0
VERTEX
  5
D5
  8
0
 10
-9.95
 20
0.0
 30
0.0
 42
0.4142135623730951
  0
SEQEND
  5
D6
  8
0
  0
POLYLINE
  5
3E
  8
0
 66
     1
 10
0.0
 20
0.0
 30
0.0
 70
     1
  0
VERTEX
  5
D7
  8
0
 10
11.5
 20
1.55
 30
0.0
 42
0.4142135623730951
  0
VERTEX
  5
D8
  8
0
 10
9.95
 20
0.0
 30
0.0
 42
0.4142135623730951
  0
VERTEX
  5
D9
  8
0
 10
11.5
 20
-1.55
 30
0.0
 42
0.4142135623730951
  0
VERTEX
  5
DA
  8
0
 10
13.05
 20
0.0
 30
0.0
 42
0.4142135623730951
  0
SEQEND
  5
DB
  8
0
  0
POLYLINE
  5
3F
  8
0
 66
     1
 10
0.0
 20
0.0
 30
0.0
 70
     1
  0
VERTEX
  5
DC
  8
0
 10
-21.65063509461082
 20
14.05000000000026
 30
0.0
 42
0.4142135623730951
  0
VERTEX
  5
DD
  8
0
 10
-23.20063509461082
 20
12.50000000000026
 30
0.0
 42
0.4142135623730951
  0
VERTEX
  5
DE
  8
0
 10
-21.65063509461082
 20
10.95000000000026
 30
0.0
 42
0.4142135623730951
  0
VERTEX
  5
DF
  8
0
 10
-20.10063509461082
 20
12.50000000000026
 30
0.0
 42
0.4142135623730951
  0
SEQEND
  5
E0
  8
0
  0
POLYLINE
  5
40
  8
0
 66
     1
 10
0.0
 20
0.0
 30
0.0
 70
     1
  0
VERTEX
  5
E1
  8
0
 10
0.0000000000000067
 20
26.55000000000001
 30
0.0
 42
0.4142135623730951
  0
VERTEX
  5
E2
  8
0
 10
-1.549999999999993
 20
25.00000000000001
 30
0.0
 42
0.4142135623730951
  0
VERTEX
  5
E3
  8
0
 10
0.0000000000000067
 20
23.45000000000001
 30
0.0
 42
0.4142135623730951
  0
VERTEX
  5
E4
  8
0
 10
1.550000000000007
 20
25.00000000000001
 30
0.0
 42
0.4142135623730951
  0
SEQEND
  5
E5
  8
0
  0
POLYLINE
  5
41
  8
0
 66
     1
 10
0.0
 20
0.0
 30
0.0
 70
     1
  0
VERTEX
  5
E6
  8
0
 10
21.65063509461099
 20
14.04999999999995
 30
0.0
 42
0.4142135623730951
  0
VERTEX
  5
E7
  8
0
 10
20.10063509461099
 20
12.49999999999995
 30
0.0
 42
0.4142135623730951
  0
VERTEX
  5
E8
  8
0
 10
21.65063509461099
 20
10.94999999999995
 30
0.0
 42
0.4142135623730951
  0
VERTEX
  5
E9
  8
0
 10
23.20063509461099
 20
12.49999999999995
 30
0.0
 42
0.4142135623730951
  0
SEQEND
  5
EA
  8
0
  0
POLYLINE
  5
42
  8
0
 66
     1
 10
0.0
 20
0.0
 30
0.0
 70
     1
  0
VERTEX
  5
EB
  8
0
 10
-21.65063509461109
 20
-10.94999999999981
 30
0.0
 42
0.4142135623730951
  0
VERTEX
  5
EC
  8
0
 10
-23.20063509461109
 20
-12.49999999999981
 30
0.0
 42
0.4142135623730951
  0
VERTEX
  5
ED
  8
0
 10
-21.65063509461109
 20
-14.04999999999981
 30
0.0
 42
0.4142135623730951
  0
VERTEX
  5
EE
  8
0
 10
-20.10063509461109
 20
-12.49999999999981
 30
0.0
 42
0.4142135623730951
  0
SEQEND
  5
EF
  8
0
  0
POLYLINE
  5
43
  8
0
 66
     1
 10
0.0
 20
0.0
 30
0.0
 70
     1
  0
VERTEX
  5
F0
  8
0
 10
21.65063509461093
 20
-10.95000000000011
 30
0.0
 42
0.4142135623730951
  0
VERTEX
  5
F1
  8
0
 10
20.10063509461093
 20
-12.50000000000011
 30
0.0
 42
0.4142135623730951
  0
VERTEX
  5
F2
  8
0
 10
21.65063509461093
 20
-14.05000000000011
 30
0.0
 42
0.4142135623730951
  0
VERTEX
  5
F3
  8
0
 10
23.20063509461093
 20
-12.50000000000011
 30
0.0
 42
0.4142135623730951
  0
SEQEND
  5
F4
  8
0
  0
ENDSEC
  0
EOF
